<?xml version="1.0" encoding="UTF-8" standalone="no"?>
<!-- Created with Inkscape (http://www.inkscape.org/) -->

<svg
   xmlns:dc="http://purl.org/dc/elements/1.1/"
   xmlns:cc="http://creativecommons.org/ns#"
   xmlns:rdf="http://www.w3.org/1999/02/22-rdf-syntax-ns#"
   xmlns:svg="http://www.w3.org/2000/svg"
   xmlns="http://www.w3.org/2000/svg"
   xmlns:xlink="http://www.w3.org/1999/xlink"
   version="1.1"
   width="821.1767"
   height="542.27362"
   id="svg2">
  <title
     id="title5437">Edit Icon</title>
  <defs
     id="defs4">
    <linearGradient
       id="linearGradient5445">
      <stop
         id="stop5447"
         style="stop-color:#ae8e20;stop-opacity:1"
         offset="0" />
      <stop
         id="stop5453"
         style="stop-color:#debc4c;stop-opacity:1"
         offset="0.5" />
      <stop
         id="stop5449"
         style="stop-color:#ae8d20;stop-opacity:1"
         offset="1" />
    </linearGradient>
    <linearGradient
       id="linearGradient5324">
      <stop
         id="stop5326"
         style="stop-color:#e6a000;stop-opacity:1"
         offset="0" />
      <stop
         id="stop5328"
         style="stop-color:#f0a700;stop-opacity:1"
         offset="0.5" />
      <stop
         id="stop5330"
         style="stop-color:#ffb505;stop-opacity:1"
         offset="1" />
    </linearGradient>
    <linearGradient
       id="linearGradient5306">
      <stop
         id="stop5308"
         style="stop-color:#ffb305;stop-opacity:1"
         offset="0" />
      <stop
         id="stop5310"
         style="stop-color:#f0a700;stop-opacity:1"
         offset="0.5" />
      <stop
         id="stop5312"
         style="stop-color:#e6a000;stop-opacity:1"
         offset="1" />
    </linearGradient>
    <linearGradient
       id="linearGradient5288">
      <stop
         id="stop5290"
         style="stop-color:#ffbc23;stop-opacity:1"
         offset="0" />
      <stop
         id="stop5294"
         style="stop-color:#ffbf2d;stop-opacity:1"
         offset="0.5" />
      <stop
         id="stop5292"
         style="stop-color:#ffbc23;stop-opacity:1"
         offset="1" />
    </linearGradient>
    <linearGradient
       id="linearGradient3730">
      <stop
         id="stop3732"
         style="stop-color:#e1e1e1;stop-opacity:1"
         offset="0" />
      <stop
         id="stop3734"
         style="stop-color:#bebebe;stop-opacity:1"
         offset="1" />
    </linearGradient>
    <linearGradient
       id="linearGradient3686">
      <stop
         id="stop3688"
         style="stop-color:#989898;stop-opacity:1"
         offset="0" />
      <stop
         id="stop3690"
         style="stop-color:#e2e2e2;stop-opacity:1"
         offset="1" />
    </linearGradient>
    <linearGradient
       id="linearGradient3670">
      <stop
         id="stop3672"
         style="stop-color:#ee5c5c;stop-opacity:1"
         offset="0" />
      <stop
         id="stop3674"
         style="stop-color:#db6f6f;stop-opacity:1"
         offset="1" />
    </linearGradient>
    <linearGradient
       id="linearGradient3646">
      <stop
         id="stop3648"
         style="stop-color:#8f8f8f;stop-opacity:1"
         offset="0" />
      <stop
         id="stop3654"
         style="stop-color:#a9a9a9;stop-opacity:1"
         offset="0.5" />
      <stop
         id="stop3650"
         style="stop-color:#8f8f8f;stop-opacity:1"
         offset="1" />
    </linearGradient>
    <linearGradient
       id="linearGradient5038">
      <stop
         id="stop5040"
         style="stop-color:#f5f5f5;stop-opacity:1"
         offset="0" />
      <stop
         id="stop5042"
         style="stop-color:#d2d2d2;stop-opacity:1"
         offset="1" />
    </linearGradient>
    <radialGradient
       cx="350.36221"
       cy="-1412.5"
       r="117.25"
       fx="350.36221"
       fy="-1412.5"
       id="radialGradient5044"
       xlink:href="#linearGradient5038"
       gradientUnits="userSpaceOnUse"
       gradientTransform="matrix(0.928052,-1.02761e-6,1.24157e-6,1.84825,506.174,1566.85)" />
    <filter
       x="-0.25"
       y="-0.25"
       width="1.5"
       height="1.5"
       color-interpolation-filters="sRGB"
       id="filter5136">
      <feGaussianBlur
         result="blur"
         stdDeviation="1.000000"
         in="SourceAlpha"
         id="feGaussianBlur5138" />
      <feColorMatrix
         values="1 0 0 0 0 0 1 0 0 0 0 0 1 0 0 0 0 0 0.650000 0 "
         type="matrix"
         result="bluralpha"
         id="feColorMatrix5140" />
      <feOffset
         result="offsetBlur"
         dy="0.700000"
         dx="0.700000"
         in="bluralpha"
         id="feOffset5142" />
      <feMerge
         id="feMerge5144">
        <feMergeNode
           in="offsetBlur"
           id="feMergeNode5146" />
        <feMergeNode
           in="SourceGraphic"
           id="feMergeNode5148" />
      </feMerge>
    </filter>
    <filter
       x="-0.25"
       y="-0.25"
       width="1.5"
       height="1.5"
       color-interpolation-filters="sRGB"
       id="filter5339">
      <feGaussianBlur
         result="blur"
         stdDeviation="1.000000"
         in="SourceAlpha"
         id="feGaussianBlur5341" />
      <feColorMatrix
         values="1 0 0 0 0 0 1 0 0 0 0 0 1 0 0 0 0 0 0.650000 0 "
         type="matrix"
         result="bluralpha"
         id="feColorMatrix5343" />
      <feOffset
         result="offsetBlur"
         dy="5.000000"
         dx="5.000000"
         in="bluralpha"
         id="feOffset5345" />
      <feMerge
         id="feMerge5347">
        <feMergeNode
           in="offsetBlur"
           id="feMergeNode5349" />
        <feMergeNode
           in="SourceGraphic"
           id="feMergeNode5351" />
      </feMerge>
    </filter>
    <radialGradient
       cx="350.36221"
       cy="-1412.5"
       r="117.25"
       fx="350.36221"
       fy="-1412.5"
       id="radialGradient5363"
       xlink:href="#linearGradient5038"
       gradientUnits="userSpaceOnUse"
       gradientTransform="matrix(0.928052,-1.02761e-6,1.24157e-6,1.84825,506.174,1566.85)" />
    <linearGradient
       x1="364.20715"
       y1="926.40173"
       x2="418.73318"
       y2="926.40173"
       id="linearGradient6366"
       xlink:href="#linearGradient5445"
       gradientUnits="userSpaceOnUse"
       gradientTransform="translate(1486.01,-406.274)" />
    <linearGradient
       x1="364.20715"
       y1="926.40173"
       x2="418.73318"
       y2="926.40173"
       id="linearGradient6368"
       xlink:href="#linearGradient5445"
       gradientUnits="userSpaceOnUse"
       gradientTransform="translate(1486.01,-406.274)" />
    <linearGradient
       x1="358.40768"
       y1="725.17578"
       x2="374.5184"
       y2="725.17578"
       id="linearGradient6370"
       xlink:href="#linearGradient5324"
       gradientUnits="userSpaceOnUse"
       gradientTransform="translate(1486.01,-406.274)" />
    <linearGradient
       x1="358.19095"
       y1="890.57562"
       x2="374.67337"
       y2="890.57562"
       id="linearGradient6372"
       xlink:href="#linearGradient5324"
       gradientUnits="userSpaceOnUse"
       gradientTransform="translate(1486.01,-406.274)" />
    <linearGradient
       x1="408.29742"
       y1="725.48407"
       x2="423.81467"
       y2="725.48407"
       id="linearGradient6374"
       xlink:href="#linearGradient5306"
       gradientUnits="userSpaceOnUse"
       gradientTransform="translate(1486.01,-406.274)" />
    <linearGradient
       x1="408.64322"
       y1="889.58978"
       x2="424.02011"
       y2="889.58978"
       id="linearGradient6376"
       xlink:href="#linearGradient5306"
       gradientUnits="userSpaceOnUse"
       gradientTransform="translate(1486.01,-406.274)" />
    <linearGradient
       x1="374.68698"
       y1="725.04547"
       x2="408.35934"
       y2="725.04547"
       id="linearGradient6378"
       xlink:href="#linearGradient5288"
       gradientUnits="userSpaceOnUse"
       gradientTransform="translate(1486.01,-406.274)" />
    <radialGradient
       cx="390.625"
       cy="533.28595"
       r="33.454552"
       fx="390.625"
       fy="533.28595"
       id="radialGradient6380"
       xlink:href="#linearGradient3670"
       gradientUnits="userSpaceOnUse"
       gradientTransform="matrix(1,0,0,0.503294,1486.01,-140.857)" />
    <linearGradient
       x1="375.52393"
       y1="898.2605"
       x2="407.11292"
       y2="898.2605"
       id="linearGradient6382"
       xlink:href="#linearGradient5288"
       gradientUnits="userSpaceOnUse"
       gradientTransform="translate(1486.01,-406.274)" />
    <linearGradient
       x1="375.52393"
       y1="898.2605"
       x2="407.11292"
       y2="898.2605"
       id="linearGradient6384"
       xlink:href="#linearGradient5288"
       gradientUnits="userSpaceOnUse"
       gradientTransform="translate(1486.01,-406.274)" />
    <linearGradient
       x1="1424.4941"
       y1="703.01312"
       x2="1493.4011"
       y2="703.01312"
       id="linearGradient6386"
       xlink:href="#linearGradient3646"
       gradientUnits="userSpaceOnUse"
       gradientTransform="matrix(0.999291,0,0,1.4618,419.3,-878.863)" />
    <radialGradient
       cx="1459.2557"
       cy="702.0036"
       r="32.669151"
       fx="1459.2557"
       fy="702.0036"
       id="radialGradient6388"
       xlink:href="#linearGradient3730"
       gradientUnits="userSpaceOnUse"
       gradientTransform="matrix(1,0,0,0.0136214,418,136.441)" />
    <radialGradient
       cx="440.84882"
       cy="545.57135"
       r="3.31565"
       fx="440.84882"
       fy="545.57135"
       id="radialGradient6390"
       xlink:href="#linearGradient3686"
       gradientUnits="userSpaceOnUse"
       gradientTransform="matrix(1,0,0,0.94,0,32.7343)" />
    <radialGradient
       cx="440.84882"
       cy="545.57135"
       r="3.31565"
       fx="440.84882"
       fy="545.57135"
       id="radialGradient6392"
       xlink:href="#linearGradient3686"
       gradientUnits="userSpaceOnUse"
       gradientTransform="matrix(1,0,0,0.94,0,32.7343)" />
    <radialGradient
       cx="440.84882"
       cy="545.57135"
       r="3.31565"
       fx="440.84882"
       fy="545.57135"
       id="radialGradient6394"
       xlink:href="#linearGradient3686"
       gradientUnits="userSpaceOnUse"
       gradientTransform="matrix(1,0,0,0.94,0,32.7343)" />
    <radialGradient
       cx="440.84882"
       cy="545.57135"
       r="3.31565"
       fx="440.84882"
       fy="545.57135"
       id="radialGradient6396"
       xlink:href="#linearGradient3686"
       gradientUnits="userSpaceOnUse"
       gradientTransform="matrix(1,0,0,0.94,0,32.7343)" />
    <radialGradient
       cx="1459.2557"
       cy="702.0036"
       r="32.669151"
       fx="1459.2557"
       fy="702.0036"
       id="radialGradient6398"
       xlink:href="#linearGradient3730"
       gradientUnits="userSpaceOnUse"
       gradientTransform="matrix(1,0,0,0.0136214,418,142.091)" />
    <linearGradient
       x1="364.20715"
       y1="926.40173"
       x2="418.73318"
       y2="926.40173"
       id="linearGradient7225"
       xlink:href="#linearGradient5445"
       gradientUnits="userSpaceOnUse"
       gradientTransform="matrix(-0.239112,0.970992,-0.970992,-0.239112,2466.11,175.871)" />
    <linearGradient
       x1="375.52393"
       y1="898.2605"
       x2="407.11292"
       y2="898.2605"
       id="linearGradient7227"
       xlink:href="#linearGradient5288"
       gradientUnits="userSpaceOnUse"
       gradientTransform="matrix(-0.239112,0.970992,-0.970992,-0.239112,2466.11,175.871)" />
    <filter
       color-interpolation-filters="sRGB"
       id="filter7384">
      <feGaussianBlur
         id="feGaussianBlur7386"
         stdDeviation="3.650407" />
    </filter>
    <linearGradient
       x1="364.20715"
       y1="926.40173"
       x2="418.73318"
       y2="926.40173"
       id="linearGradient7406"
       xlink:href="#linearGradient5445"
       gradientUnits="userSpaceOnUse"
       gradientTransform="matrix(-0.239112,0.970992,-0.970992,-0.239112,2466.11,175.871)" />
    <linearGradient
       x1="375.52393"
       y1="898.2605"
       x2="407.11292"
       y2="898.2605"
       id="linearGradient7408"
       xlink:href="#linearGradient5288"
       gradientUnits="userSpaceOnUse"
       gradientTransform="matrix(-0.239112,0.970992,-0.970992,-0.239112,2466.11,175.871)" />
  </defs>
  <metadata
     id="metadata7">
    <rdf:RDF>
      <cc:Work
         rdf:about="">
        <dc:format>image/svg+xml</dc:format>
        <dc:type
           rdf:resource="http://purl.org/dc/dcmitype/StillImage" />
        <dc:title>Edit Icon</dc:title>
        <cc:license
           rdf:resource="http://creativecommons.org/licenses/by-sa/3.0/" />
        <dc:creator>
          <cc:Agent>
            <dc:title />
          </cc:Agent>
        </dc:creator>
        <dc:date>2012-01-07</dc:date>
      </cc:Work>
      <cc:License
         rdf:about="http://creativecommons.org/licenses/by-sa/3.0/">
        <cc:permits
           rdf:resource="http://creativecommons.org/ns#Reproduction" />
        <cc:permits
           rdf:resource="http://creativecommons.org/ns#Distribution" />
        <cc:requires
           rdf:resource="http://creativecommons.org/ns#Notice" />
        <cc:requires
           rdf:resource="http://creativecommons.org/ns#Attribution" />
        <cc:permits
           rdf:resource="http://creativecommons.org/ns#DerivativeWorks" />
        <cc:requires
           rdf:resource="http://creativecommons.org/ns#ShareAlike" />
      </cc:License>
    </rdf:RDF>
  </metadata>
  <g
     transform="translate(-1068.01,-64.7246)"
     id="layer1">
    <rect
       width="215.05975"
       height="430.11493"
       ry="5.3718143"
       x="723.79681"
       y="-1258.8589"
       transform="matrix(0.563847,0.825879,-0.955411,0.29528,0,0)"
       id="rect2816"
       style="fill:url(#radialGradient5044);fill-opacity:1;stroke:#737373;stroke-width:2.91173601;stroke-linejoin:miter;stroke-miterlimit:4;stroke-opacity:1;stroke-dasharray:none;filter:url(#filter5339)" />
    <text
       x="1346"
       y="295.36221"
       transform="matrix(1.13917,-0.352073,0.523279,0.766459,-326.419,607.127)"
       id="text5050"
       xml:space="preserve"
       style="font-size:40px;font-style:normal;font-variant:normal;font-weight:bold;font-stretch:normal;writing-mode:lr-tb;fill:#000000;fill-opacity:1;stroke:none;filter:url(#filter5136);font-family:sans;-inkscape-font-specification:sans"><tspan
         x="1346"
         y="295.36221"
         id="tspan5064"
         style="font-size:35px;font-style:normal;font-variant:normal;font-weight:bold;font-stretch:normal;font-family:sans;-inkscape-font-specification:sans">Kar</tspan></text>
    <text
       x="1409"
       y="2223"
       transform="translate(0,-1947.64)"
       id="text5054"
       xml:space="preserve"
       style="font-size:40px;font-style:normal;font-variant:normal;font-weight:bold;font-stretch:normal;fill:#000000;fill-opacity:1;stroke:none;font-family:sans;-inkscape-font-specification:sans"><tspan
         x="1409"
         y="2223"
         id="tspan5058" /></text>
    <g
       transform="matrix(0.997334,-0.0729746,0.0729746,0.997334,-20.0516,107.008)"
       id="g7088"
       style="opacity:0.52789702;filter:url(#filter7384)">
      <path
         d="m 1439.9098,323.70067 c 0.6136,-0.67246 1.0817,-1.25731 1.0402,-1.29967 -0.051,-0.0528 61.4933,-6.91574 65.3375,-7.28639 0.082,-0.008 -0.048,0.16141 -0.2895,0.37639 -1.1874,1.0556 -1.6809,2.89186 -1.2799,4.76222 0.078,0.36272 0.2283,0.7935 0.3345,0.95724 0.1062,0.16384 1.5816,1.41523 3.2787,2.78104 l 3.0856,2.48325 -0.08,0.4497 -0.08,0.4497 -3.3769,0.97749 c -1.8573,0.53769 -4.1033,1.18481 -4.9912,1.43817 -0.8878,0.25335 -1.9778,0.61286 -2.4221,0.79882 -1.5758,0.65963 -3.4101,2.02493 -4.5973,3.42179 -0.6724,0.79127 -1.5945,2.29273 -2.0404,3.32238 -0.4833,1.11582 -1.0757,3.75769 -1.097,4.89179 -0.032,1.67281 0.2872,3.52627 0.8834,5.1385 0.3411,0.92222 1.4837,2.87755 2.0481,3.50458 0.3609,0.40104 7.0395,6.74994 7.4014,7.03607 0.2067,0.16336 0.2065,0.20162 0,0.94236 l -0.2199,0.77202 -3.0179,1.74766 c -3.1929,1.84888 -3.3179,1.94662 -3.9384,3.07881 -0.5195,0.94798 -0.7085,1.61031 -0.6847,2.39958 0.014,0.45664 -0.014,0.68546 -0.079,0.64087 -0.055,-0.0383 -12.8302,-8.71154 -28.389,-19.27415 -15.5589,-10.5626 -28.3209,-19.25408 -28.3602,-19.31432 -0.043,-0.0673 0.1985,-0.65196 0.2997,-0.62702 0.2248,0.0554 0.023,0.58364 -0.051,-1.03343 -0.091,-1.98506 -0.067,-2.04903 1.289,-3.53542 l 0,-3e-5 z"
         id="path6626"
         style="fill:#000000;fill-opacity:1;stroke:url(#linearGradient7406);stroke-width:1;stroke-opacity:1" />
      <path
         d="m 1436.3631,322.71008 c 3.6612,-0.3602 6.677,-0.62259 6.7016,-0.58327 0.024,0.039 -0.502,0.68226 -1.1708,1.42858 -1.5842,1.76798 -1.7762,2.27951 -1.6902,4.50277 0.069,1.78012 -0.1384,1.62866 -0.1946,1.77259 -0.1856,0.47355 -0.1196,0.1929 -0.1684,0.26995 -0.058,0.0895 -1.8972,-1.16017 -5.0877,-3.27192 -2.6873,-1.77855 -4.9221,-3.28575 -4.9661,-3.34902 -0.043,-0.0632 2.9156,-0.40962 6.5766,-0.76956 z"
         id="path6628"
         style="fill:#000000;fill-opacity:1;stroke:#000000;stroke-width:0.41854754;stroke-linejoin:miter;stroke-miterlimit:4;stroke-opacity:1;stroke-dasharray:none" />
      <path
         d="m 1511.9355,326.60719 12.884,-13.41926 311.9398,76.81677 -3.8523,15.64336 -320.9715,-79.04087 z"
         id="path6630"
         style="fill:#000000;fill-opacity:1;stroke:none" />
      <path
         d="m 1511.8279,326.74033 -6.4779,-5.21791 -0.3183,-0.38888 c -1.188,-3.04574 0.1912,-6.14228 2.9268,-6.42113 l 16.4959,-1.83767 -12.6265,13.86559 z"
         id="path6632"
         style="fill:#000000;fill-opacity:1;stroke:none" />
      <path
         d="m 1824.9433,438.47509 -3.7103,15.06718 -313.1659,-77.11869 -4.9496,-17.07461 321.8258,79.12612 z"
         id="path6634"
         style="fill:#000000;fill-opacity:1;stroke:none" />
      <path
         d="m 1503.0223,359.55652 -5.5705,3.28596 -0.584,0.27019 c -1.62,1.85918 -2.5674,4.47297 -0.3444,6.02203 l 11.8001,7.56355 -5.3012,-17.14173 z"
         id="path6636"
         style="fill:#000000;fill-opacity:1;stroke:none" />
      <path
         d="m 1832.9454,405.83115 -8.0514,32.69553 -320.876,-79.01732 8.0201,-32.56795 320.9073,78.88974 z"
         id="path6638"
         style="fill:#000000;fill-opacity:1;stroke:none" />
      <path
         d="m 1846.4358,391.62836 -15.7597,63.99721 23.7342,5.90851 9.8259,-5.89336 11.2893,-46.44559 -5.9377,-11.32354 -21.4118,-5.40934 -1.7403,-0.83379 z"
         id="path6640"
         style="fill:#000000;fill-opacity:1;stroke:none" />
      <path
         d="m 1508.1816,376.68112 -4.6607,-17.19008 0.2005,-0.81417 0.164,-0.66601 8.228,-31.76431 12.5563,-13.078 0.371,-0.38649"
         id="path6642"
         style="fill:#000000;stroke:#000000;stroke-width:1px;stroke-linecap:butt;stroke-linejoin:miter;stroke-opacity:1" />
      <path
         d="m 1493.5744,338.19919 c 1.179,-3.29434 3.6378,-6.03162 6.6672,-7.4225 0.4664,-0.2141 1.0069,-0.42302 1.2011,-0.46427 0.1944,-0.0417 2.4602,-0.68727 5.0355,-1.4356 l 4.6823,-1.36059 -0.096,0.50023 c -0.1332,0.69605 -7.7253,29.93135 -7.7813,29.9637 -0.025,0.0145 -1.6084,-1.47611 -3.5187,-3.31245 -1.9103,-1.83634 -3.5327,-3.38099 -3.6054,-3.43247 -0.2931,-0.20759 -1.0436,-1.19489 -1.5665,-2.06063 -1.244,-2.05949 -1.9158,-4.90797 -1.7378,-7.36786 0.084,-1.16433 0.3853,-2.67434 0.7193,-3.60745 l 0,0 z"
         id="path6644"
         style="fill:#000000;fill-opacity:1;stroke:url(#linearGradient7408);stroke-width:0.101;stroke-linejoin:miter;stroke-miterlimit:4;stroke-opacity:1;stroke-dasharray:none" />
      <path
         d="m 1873.3295,418.95908 -9.1239,37.05053 -9.7592,5.90247 -16.0394,-3.94978 -331.1083,-81.5371 -78.5276,-53.32368 95.28,-10.52268 331.1083,81.5371 14.6188,3.59996 5.831,11.62024 -2.2796,9.62295 z"
         id="path6646"
         style="fill:#000000;fill-opacity:1;stroke:none" />
      <path
         d="m 444.16447,545.57135 a 3.31565,3.1167107 0 1 1 -6.6313,0 3.31565,3.1167107 0 1 1 6.6313,0 z"
         transform="matrix(-0.114086,0.463284,-0.463284,-0.114086,2131.33,303.067)"
         id="path6652"
         style="fill:#000000;fill-opacity:1;stroke:none" />
      <path
         d="m 444.16447,545.57135 a 3.31565,3.1167107 0 1 1 -6.6313,0 3.31565,3.1167107 0 1 1 6.6313,0 z"
         transform="matrix(-0.114086,0.463284,-0.463284,-0.114086,2134.68,289.473)"
         id="path6654"
         style="fill:#000000;fill-opacity:1;stroke:none" />
      <path
         d="m 444.16447,545.57135 a 3.31565,3.1167107 0 1 1 -6.6313,0 3.31565,3.1167107 0 1 1 6.6313,0 z"
         transform="matrix(-0.114086,0.463284,-0.463284,-0.114086,2138.5,273.937)"
         id="path6656"
         style="fill:#000000;fill-opacity:1;stroke:none" />
      <path
         d="m 444.16447,545.57135 a 3.31565,3.1167107 0 1 1 -6.6313,0 3.31565,3.1167107 0 1 1 6.6313,0 z"
         transform="matrix(-0.114086,0.463284,-0.463284,-0.114086,2141.85,260.343)"
         id="path6658"
         style="fill:#000000;fill-opacity:1;stroke:none" />
      <path
         d="m 1503.5334,359.40277 320.8754,79.0172"
         id="path6662"
         style="fill:#000000;stroke:#000000;stroke-width:1.00120032px;stroke-linecap:butt;stroke-linejoin:miter;stroke-opacity:1" />
      <path
         d="m 1511.5773,326.75492 320.8595,79.0133"
         id="path6664"
         style="fill:#000000;stroke:#000000;stroke-width:1.00080097px;stroke-linecap:butt;stroke-linejoin:miter;stroke-opacity:1" />
      <rect
         width="5.2901044"
         height="5.2127295"
         ry="0"
         x="-1131.3983"
         y="-540.42804"
         transform="matrix(-0.999454,0.0330362,-0.6735,-0.739187,0,0)"
         id="rect6666"
         style="fill:#000000;fill-opacity:0.30357145;stroke:none" />
      <rect
         width="5.2901044"
         height="5.2127295"
         ry="0"
         x="-1303.9233"
         y="-319.89297"
         transform="matrix(-0.997222,-0.074485,-0.590225,-0.807239,0,0)"
         id="rect6668"
         style="fill:#000000;fill-opacity:0.30357145;stroke:none" />
      <rect
         width="5.2901044"
         height="5.2127295"
         ry="0"
         x="-1202.9873"
         y="-424.37308"
         transform="matrix(-0.999878,-0.0155936,-0.636766,-0.771057,0,0)"
         id="rect6670"
         style="fill:#000000;fill-opacity:0.30357145;stroke:none" />
      <rect
         width="5.2901044"
         height="5.2127295"
         ry="0"
         x="-1258.8325"
         y="-368.3602"
         transform="matrix(-0.998972,-0.0453376,-0.613542,-0.789662,0,0)"
         id="rect6672"
         style="fill:#000000;fill-opacity:0.30357145;stroke:none" />
      <rect
         width="5.2901044"
         height="5.2127295"
         ry="0"
         x="-902.21832"
         y="-781.38727"
         transform="matrix(-0.985055,0.172242,-0.770099,-0.637924,0,0)"
         id="rect6674"
         style="fill:#000000;fill-opacity:0.30357145;stroke:none" />
      <rect
         width="5.2901044"
         height="5.2127295"
         ry="0"
         x="-1241.59"
         y="-388.19595"
         transform="matrix(-0.999238,-0.039039,-0.618508,-0.785779,0,0)"
         id="rect6676"
         style="fill:#000000;fill-opacity:0.30357145;stroke:none" />
      <rect
         width="5.2901044"
         height="5.2127295"
         ry="0"
         x="-1153.0729"
         y="-521.15485"
         transform="matrix(-0.999693,0.0247594,-0.667356,-0.744739,0,0)"
         id="rect6678"
         style="fill:#000000;fill-opacity:0.30357145;stroke:none" />
      <rect
         width="5.2901044"
         height="5.2127295"
         ry="0"
         x="-822.18829"
         y="-850.00684"
         transform="matrix(-0.976783,0.214233,-0.79669,-0.604389,0,0)"
         id="rect6680"
         style="fill:#000000;fill-opacity:0.30357145;stroke:none" />
      <rect
         width="5.2901044"
         height="5.2127295"
         ry="0"
         x="-1351.728"
         y="-262.69452"
         transform="matrix(-0.994913,-0.100734,-0.568751,-0.82251,0,0)"
         id="rect6682"
         style="fill:#000000;fill-opacity:0.30357145;stroke:none" />
      <rect
         width="5.2901044"
         height="5.2127295"
         ry="0"
         x="-909.56573"
         y="-749.83893"
         transform="matrix(-0.98676,0.162186,-0.763552,-0.645746,0,0)"
         id="rect6684"
         style="fill:#000000;fill-opacity:0.30357145;stroke:none" />
      <rect
         width="5.2901044"
         height="5.2127295"
         ry="0"
         x="-884.91302"
         y="-764.01874"
         transform="matrix(-0.984668,0.174439,-0.77152,-0.636205,0,0)"
         id="rect6686"
         style="fill:#000000;fill-opacity:0.30357145;stroke:none" />
      <rect
         width="5.2901044"
         height="5.2127295"
         ry="0"
         x="-1197.2358"
         y="-416.5972"
         transform="matrix(-0.999878,-0.0155936,-0.636766,-0.771057,0,0)"
         id="rect6688"
         style="fill:#000000;fill-opacity:0.30357145;stroke:none" />
      <rect
         width="5.2901044"
         height="5.2127295"
         ry="0"
         x="-728.71564"
         y="-953.99445"
         transform="matrix(-0.962908,0.269831,-0.830001,-0.557763,0,0)"
         id="rect6690"
         style="fill:#000000;fill-opacity:0.30357145;stroke:none" />
      <rect
         width="5.2901044"
         height="5.2127295"
         ry="0"
         x="-559.27972"
         y="-1096.1283"
         transform="matrix(-0.935326,0.353786,-0.876001,-0.482309,0,0)"
         id="rect6692"
         style="fill:#000000;fill-opacity:0.30357145;stroke:none" />
      <rect
         width="5.2901044"
         height="5.2127295"
         ry="0"
         x="-554.09662"
         y="-1088.875"
         transform="matrix(-0.935326,0.353786,-0.876001,-0.482309,0,0)"
         id="rect6694"
         style="fill:#000000;fill-opacity:0.30357145;stroke:none" />
      <rect
         width="5.2901044"
         height="5.2127295"
         ry="0"
         x="-554.94427"
         y="-1073.3934"
         transform="matrix(-0.935921,0.352209,-0.875187,-0.483785,0,0)"
         id="rect6696"
         style="fill:#000000;fill-opacity:0.30357145;stroke:none" />
      <rect
         width="5.2901044"
         height="5.2127295"
         ry="0"
         x="-245.82158"
         y="-1335.6528"
         transform="matrix(-0.86546,0.500977,-0.942695,-0.333654,0,0)"
         id="rect6698"
         style="fill:#000000;fill-opacity:0.30357145;stroke:none" />
      <rect
         width="5.2901044"
         height="5.2127295"
         ry="0"
         x="-241.38654"
         y="-1350.0447"
         transform="matrix(-0.862834,0.505487,-0.944424,-0.32873,0,0)"
         id="rect6700"
         style="fill:#000000;fill-opacity:0.30357145;stroke:none" />
      <rect
         width="5.2901044"
         height="5.2127295"
         ry="0"
         x="-248.19781"
         y="-1355.3976"
         transform="matrix(-0.862834,0.505487,-0.944424,-0.32873,0,0)"
         id="rect6702"
         style="fill:#000000;fill-opacity:0.30357145;stroke:none" />
      <rect
         width="5.2901044"
         height="5.2127295"
         ry="0"
         x="-251.25787"
         y="-1363.3695"
         transform="matrix(-0.862834,0.505487,-0.944424,-0.32873,0,0)"
         id="rect6704"
         style="fill:#000000;fill-opacity:0.30357145;stroke:none" />
      <rect
         width="5.2901044"
         height="5.2127295"
         ry="0"
         x="-427.35492"
         y="-1218.6083"
         transform="matrix(-0.906697,0.421783,-0.909177,-0.41641,0,0)"
         id="rect6706"
         style="fill:#000000;fill-opacity:0.30357145;stroke:none" />
      <rect
         width="5.2901044"
         height="5.2127295"
         ry="0"
         x="-117.75217"
         y="-1465.1527"
         transform="matrix(-0.8285,0.559988,-0.963629,-0.267245,0,0)"
         id="rect6708"
         style="fill:#000000;fill-opacity:0.30357145;stroke:none" />
      <rect
         width="5.2901044"
         height="5.2127295"
         ry="0"
         x="-877.86493"
         y="-761.01642"
         transform="matrix(-0.984668,0.174439,-0.77152,-0.636205,0,0)"
         id="rect6710"
         style="fill:#000000;fill-opacity:0.30357145;stroke:none" />
      <path
         d="m 434.06306,512.65387 a 1.8388791,1.8826621 0 1 1 -3.67776,0 1.8388791,1.8826621 0 1 1 3.67776,0 z"
         transform="matrix(-0.0967833,0.393021,-0.393021,-0.0967833,2105.09,331.595)"
         id="path6712"
         style="fill:#000000;fill-opacity:0.1830357;stroke:none" />
      <path
         d="m 434.06306,512.65387 a 1.8388791,1.8826621 0 1 1 -3.67776,0 1.8388791,1.8826621 0 1 1 3.67776,0 z"
         transform="matrix(-0.0967833,0.393021,-0.393021,-0.0967833,2099.93,333.156)"
         id="path6714"
         style="fill:#000000;fill-opacity:0.1830357;stroke:none" />
      <path
         d="m 434.06306,512.65387 a 1.8388791,1.8826621 0 1 1 -3.67776,0 1.8388791,1.8826621 0 1 1 3.67776,0 z"
         transform="matrix(-0.0967833,0.393021,-0.393021,-0.0967833,2101.92,328.259)"
         id="path6716"
         style="fill:#000000;fill-opacity:0.1830357;stroke:none" />
      <path
         d="m 434.06306,512.65387 a 1.8388791,1.8826621 0 1 1 -3.67776,0 1.8388791,1.8826621 0 1 1 3.67776,0 z"
         transform="matrix(-0.0967833,0.393021,-0.393021,-0.0967833,2104.3,324.681)"
         id="path6718"
         style="fill:#000000;fill-opacity:0.1830357;stroke:none" />
      <path
         d="m 434.06306,512.65387 a 1.8388791,1.8826621 0 1 1 -3.67776,0 1.8388791,1.8826621 0 1 1 3.67776,0 z"
         transform="matrix(-0.0967833,0.393021,-0.393021,-0.0967833,2106.74,319.952)"
         id="path6720"
         style="fill:#000000;fill-opacity:0.1830357;stroke:none" />
      <path
         d="m 434.06306,512.65387 a 1.8388791,1.8826621 0 1 1 -3.67776,0 1.8388791,1.8826621 0 1 1 3.67776,0 z"
         transform="matrix(-0.0967833,0.393021,-0.393021,-0.0967833,2098.77,318.045)"
         id="path6722"
         style="fill:#000000;fill-opacity:0.1830357;stroke:none" />
      <path
         d="m 434.06306,512.65387 a 1.8388791,1.8826621 0 1 1 -3.67776,0 1.8388791,1.8826621 0 1 1 3.67776,0 z"
         transform="matrix(-0.0967833,0.393021,-0.393021,-0.0967833,2098.1,324.376)"
         id="path6724"
         style="fill:#000000;fill-opacity:0.1830357;stroke:none" />
      <path
         d="m 434.06306,512.65387 a 1.8388791,1.8826621 0 1 1 -3.67776,0 1.8388791,1.8826621 0 1 1 3.67776,0 z"
         transform="matrix(-0.0967833,0.393021,-0.393021,-0.0967833,2102.43,321.667)"
         id="path6726"
         style="fill:#000000;fill-opacity:0.1830357;stroke:none" />
      <path
         d="m 434.06306,512.65387 a 1.8388791,1.8826621 0 1 1 -3.67776,0 1.8388791,1.8826621 0 1 1 3.67776,0 z"
         transform="matrix(-0.0967833,0.393021,-0.393021,-0.0967833,2101.78,315.956)"
         id="path6728"
         style="fill:#000000;fill-opacity:0.1830357;stroke:none" />
      <path
         d="m 434.06306,512.65387 a 1.8388791,1.8826621 0 1 1 -3.67776,0 1.8388791,1.8826621 0 1 1 3.67776,0 z"
         transform="matrix(-0.0967833,0.393021,-0.393021,-0.0967833,2094.29,316.165)"
         id="path6730"
         style="fill:#000000;fill-opacity:0.1830357;stroke:none" />
      <path
         d="m 434.06306,512.65387 a 1.8388791,1.8826621 0 1 1 -3.67776,0 1.8388791,1.8826621 0 1 1 3.67776,0 z"
         transform="matrix(-0.0967833,0.393021,-0.393021,-0.0967833,2089.29,325.649)"
         id="path6732"
         style="fill:#000000;fill-opacity:0.1830357;stroke:none" />
      <path
         d="m 434.06306,512.65387 a 1.8388791,1.8826621 0 1 1 -3.67776,0 1.8388791,1.8826621 0 1 1 3.67776,0 z"
         transform="matrix(-0.0967833,0.393021,-0.393021,-0.0967833,2095.64,320.828)"
         id="path6734"
         style="fill:#000000;fill-opacity:0.1830357;stroke:none" />
      <path
         d="m 434.06306,512.65387 a 1.8388791,1.8826621 0 1 1 -3.67776,0 1.8388791,1.8826621 0 1 1 3.67776,0 z"
         transform="matrix(-0.0967833,0.393021,-0.393021,-0.0967833,2091.44,320.294)"
         id="path6736"
         style="fill:#000000;fill-opacity:0.1830357;stroke:none" />
      <path
         d="m 434.06306,512.65387 a 1.8388791,1.8826621 0 1 1 -3.67776,0 1.8388791,1.8826621 0 1 1 3.67776,0 z"
         transform="matrix(-0.0967833,0.393021,-0.393021,-0.0967833,2094.32,324.611)"
         id="path6738"
         style="fill:#000000;fill-opacity:0.1830357;stroke:none" />
      <path
         d="m 434.06306,512.65387 a 1.8388791,1.8826621 0 1 1 -3.67776,0 1.8388791,1.8826621 0 1 1 3.67776,0 z"
         transform="matrix(-0.0967833,0.393021,-0.393021,-0.0967833,2097.24,328.772)"
         id="path6740"
         style="fill:#000000;fill-opacity:0.1830357;stroke:none" />
      <path
         d="m 434.06306,512.65387 a 1.8388791,1.8826621 0 1 1 -3.67776,0 1.8388791,1.8826621 0 1 1 3.67776,0 z"
         transform="matrix(-0.0967833,0.393021,-0.393021,-0.0967833,2094.03,328.482)"
         id="path6742"
         style="fill:#000000;fill-opacity:0.1830357;stroke:none" />
      <path
         d="m 434.06306,512.65387 a 1.8388791,1.8826621 0 1 1 -3.67776,0 1.8388791,1.8826621 0 1 1 3.67776,0 z"
         transform="matrix(-0.0967833,0.393021,-0.393021,-0.0967833,2090.58,329.188)"
         id="path6744"
         style="fill:#000000;fill-opacity:0.1830357;stroke:none" />
      <path
         d="m 434.06306,512.65387 a 1.8388791,1.8826621 0 1 1 -3.67776,0 1.8388791,1.8826621 0 1 1 3.67776,0 z"
         transform="matrix(-0.0967833,0.393021,-0.393021,-0.0967833,2082.99,329.149)"
         id="path6746"
         style="fill:#000000;fill-opacity:0.1830357;stroke:none" />
      <path
         d="m 434.06306,512.65387 a 1.8388791,1.8826621 0 1 1 -3.67776,0 1.8388791,1.8826621 0 1 1 3.67776,0 z"
         transform="matrix(-0.0967833,0.393021,-0.393021,-0.0967833,2086.55,330.026)"
         id="path6748"
         style="fill:#000000;fill-opacity:0.1830357;stroke:none" />
      <path
         d="m 434.06306,512.65387 a 1.8388791,1.8826621 0 1 1 -3.67776,0 1.8388791,1.8826621 0 1 1 3.67776,0 z"
         transform="matrix(-0.0967833,0.393021,-0.393021,-0.0967833,2084.9,325.233)"
         id="path6750"
         style="fill:#000000;fill-opacity:0.1830357;stroke:none" />
      <path
         d="m 434.06306,512.65387 a 1.8388791,1.8826621 0 1 1 -3.67776,0 1.8388791,1.8826621 0 1 1 3.67776,0 z"
         transform="matrix(-0.0967833,0.393021,-0.393021,-0.0967833,2086.83,320.545)"
         id="path6752"
         style="fill:#000000;fill-opacity:0.1830357;stroke:none" />
      <path
         d="m 434.06306,512.65387 a 1.8388791,1.8826621 0 1 1 -3.67776,0 1.8388791,1.8826621 0 1 1 3.67776,0 z"
         transform="matrix(-0.0967833,0.393021,-0.393021,-0.0967833,2089.4,315.96)"
         id="path6754"
         style="fill:#000000;fill-opacity:0.1830357;stroke:none" />
      <path
         d="m 434.06306,512.65387 a 1.8388791,1.8826621 0 1 1 -3.67776,0 1.8388791,1.8826621 0 1 1 3.67776,0 z"
         transform="matrix(-0.0967833,0.393021,-0.393021,-0.0967833,2092.15,313.139)"
         id="path6756"
         style="fill:#000000;fill-opacity:0.1830357;stroke:none" />
      <path
         d="m 434.06306,512.65387 a 1.8388791,1.8826621 0 1 1 -3.67776,0 1.8388791,1.8826621 0 1 1 3.67776,0 z"
         transform="matrix(-0.0967833,0.393021,-0.393021,-0.0967833,2096.83,312.181)"
         id="path6758"
         style="fill:#000000;fill-opacity:0.1830357;stroke:none" />
      <path
         d="m 434.06306,512.65387 a 1.8388791,1.8826621 0 1 1 -3.67776,0 1.8388791,1.8826621 0 1 1 3.67776,0 z"
         transform="matrix(-0.0967833,0.393021,-0.393021,-0.0967833,2100.32,311.764)"
         id="path6760"
         style="fill:#000000;fill-opacity:0.1830357;stroke:none" />
      <path
         d="m 434.06306,512.65387 a 1.8388791,1.8826621 0 1 1 -3.67776,0 1.8388791,1.8826621 0 1 1 3.67776,0 z"
         transform="matrix(-0.0967833,0.393021,-0.393021,-0.0967833,2108.3,312.952)"
         id="path6762"
         style="fill:#000000;fill-opacity:0.1830357;stroke:none" />
      <path
         d="m 434.06306,512.65387 a 1.8388791,1.8826621 0 1 1 -3.67776,0 1.8388791,1.8826621 0 1 1 3.67776,0 z"
         transform="matrix(-0.0967833,0.393021,-0.393021,-0.0967833,2104.76,310.414)"
         id="path6764"
         style="fill:#000000;fill-opacity:0.1830357;stroke:none" />
      <path
         d="m 434.06306,512.65387 a 1.8388791,1.8826621 0 1 1 -3.67776,0 1.8388791,1.8826621 0 1 1 3.67776,0 z"
         transform="matrix(-0.0967833,0.393021,-0.393021,-0.0967833,2110.26,305.44)"
         id="path6766"
         style="fill:#000000;fill-opacity:0.1830357;stroke:none" />
      <path
         d="m 434.06306,512.65387 a 1.8388791,1.8826621 0 1 1 -3.67776,0 1.8388791,1.8826621 0 1 1 3.67776,0 z"
         transform="matrix(-0.0967833,0.393021,-0.393021,-0.0967833,2110.94,309.438)"
         id="path6768"
         style="fill:#000000;fill-opacity:0.1830357;stroke:none" />
      <path
         d="m 434.06306,512.65387 a 1.8388791,1.8826621 0 1 1 -3.67776,0 1.8388791,1.8826621 0 1 1 3.67776,0 z"
         transform="matrix(-0.0967833,0.393021,-0.393021,-0.0967833,2102.22,303.128)"
         id="path6770"
         style="fill:#000000;fill-opacity:0.1830357;stroke:none" />
      <path
         d="m 434.06306,512.65387 a 1.8388791,1.8826621 0 1 1 -3.67776,0 1.8388791,1.8826621 0 1 1 3.67776,0 z"
         transform="matrix(-0.0967833,0.393021,-0.393021,-0.0967833,2105.42,305.47)"
         id="path6772"
         style="fill:#000000;fill-opacity:0.1830357;stroke:none" />
      <path
         d="m 434.06306,512.65387 a 1.8388791,1.8826621 0 1 1 -3.67776,0 1.8388791,1.8826621 0 1 1 3.67776,0 z"
         transform="matrix(-0.0967833,0.393021,-0.393021,-0.0967833,2099.47,305.282)"
         id="path6774"
         style="fill:#000000;fill-opacity:0.1830357;stroke:none" />
      <path
         d="m 434.06306,512.65387 a 1.8388791,1.8826621 0 1 1 -3.67776,0 1.8388791,1.8826621 0 1 1 3.67776,0 z"
         transform="matrix(-0.0967833,0.393021,-0.393021,-0.0967833,2093.18,307.618)"
         id="path6776"
         style="fill:#000000;fill-opacity:0.1830357;stroke:none" />
      <path
         d="m 434.06306,512.65387 a 1.8388791,1.8826621 0 1 1 -3.67776,0 1.8388791,1.8826621 0 1 1 3.67776,0 z"
         transform="matrix(-0.0967833,0.393021,-0.393021,-0.0967833,2096.51,301.5)"
         id="path6778"
         style="fill:#000000;fill-opacity:0.1830357;stroke:none" />
      <path
         d="m 434.06306,512.65387 a 1.8388791,1.8826621 0 1 1 -3.67776,0 1.8388791,1.8826621 0 1 1 3.67776,0 z"
         transform="matrix(-0.0967833,0.393021,-0.393021,-0.0967833,2089.98,306.387)"
         id="path6780"
         style="fill:#000000;fill-opacity:0.1830357;stroke:none" />
      <path
         d="m 434.06306,512.65387 a 1.8388791,1.8826621 0 1 1 -3.67776,0 1.8388791,1.8826621 0 1 1 3.67776,0 z"
         transform="matrix(-0.0967833,0.393021,-0.393021,-0.0967833,2093.22,297.302)"
         id="path6782"
         style="fill:#000000;fill-opacity:0.1830357;stroke:none" />
      <path
         d="m 434.06306,512.65387 a 1.8388791,1.8826621 0 1 1 -3.67776,0 1.8388791,1.8826621 0 1 1 3.67776,0 z"
         transform="matrix(-0.0967833,0.393021,-0.393021,-0.0967833,2091.49,301.152)"
         id="path6784"
         style="fill:#000000;fill-opacity:0.1830357;stroke:none" />
      <path
         d="m 434.06306,512.65387 a 1.8388791,1.8826621 0 1 1 -3.67776,0 1.8388791,1.8826621 0 1 1 3.67776,0 z"
         transform="matrix(-0.0967833,0.393021,-0.393021,-0.0967833,2088.65,311.112)"
         id="path6786"
         style="fill:#000000;fill-opacity:0.1830357;stroke:none" />
      <path
         d="m 434.06306,512.65387 a 1.8388791,1.8826621 0 1 1 -3.67776,0 1.8388791,1.8826621 0 1 1 3.67776,0 z"
         transform="matrix(-0.0967833,0.393021,-0.393021,-0.0967833,2086.13,312.324)"
         id="path6788"
         style="fill:#000000;fill-opacity:0.1830357;stroke:none" />
      <path
         d="m 434.06306,512.65387 a 1.8388791,1.8826621 0 1 1 -3.67776,0 1.8388791,1.8826621 0 1 1 3.67776,0 z"
         transform="matrix(-0.0967833,0.393021,-0.393021,-0.0967833,2094.7,332.978)"
         id="path6790"
         style="fill:#000000;fill-opacity:0.1830357;stroke:none" />
      <path
         d="m 434.06306,512.65387 a 1.8388791,1.8826621 0 1 1 -3.67776,0 1.8388791,1.8826621 0 1 1 3.67776,0 z"
         transform="matrix(-0.0967833,0.393021,-0.393021,-0.0967833,2096.78,336.043)"
         id="path6792"
         style="fill:#000000;fill-opacity:0.1830357;stroke:none" />
      <path
         d="m 434.06306,512.65387 a 1.8388791,1.8826621 0 1 1 -3.67776,0 1.8388791,1.8826621 0 1 1 3.67776,0 z"
         transform="matrix(-0.0967833,0.393021,-0.393021,-0.0967833,2088.47,334.386)"
         id="path6794"
         style="fill:#000000;fill-opacity:0.1830357;stroke:none" />
      <path
         d="m 434.06306,512.65387 a 1.8388791,1.8826621 0 1 1 -3.67776,0 1.8388791,1.8826621 0 1 1 3.67776,0 z"
         transform="matrix(-0.0967833,0.393021,-0.393021,-0.0967833,2092.37,335.68)"
         id="path6796"
         style="fill:#000000;fill-opacity:0.1830357;stroke:none" />
      <path
         d="m 434.06306,512.65387 a 1.8388791,1.8826621 0 1 1 -3.67776,0 1.8388791,1.8826621 0 1 1 3.67776,0 z"
         transform="matrix(-0.0967833,0.393021,-0.393021,-0.0967833,2084.61,333.824)"
         id="path6798"
         style="fill:#000000;fill-opacity:0.1830357;stroke:none" />
      <path
         d="m 434.06306,512.65387 a 1.8388791,1.8826621 0 1 1 -3.67776,0 1.8388791,1.8826621 0 1 1 3.67776,0 z"
         transform="matrix(-0.0967833,0.393021,-0.393021,-0.0967833,2079.55,333.633)"
         id="path6800"
         style="fill:#000000;fill-opacity:0.1830357;stroke:none" />
      <path
         d="m 434.06306,512.65387 a 1.8388791,1.8826621 0 1 1 -3.67776,0 1.8388791,1.8826621 0 1 1 3.67776,0 z"
         transform="matrix(-0.0967833,0.393021,-0.393021,-0.0967833,2079.53,326.298)"
         id="path6802"
         style="fill:#000000;fill-opacity:0.1830357;stroke:none" />
      <path
         d="m 434.06306,512.65387 a 1.8388791,1.8826621 0 1 1 -3.67776,0 1.8388791,1.8826621 0 1 1 3.67776,0 z"
         transform="matrix(-0.0967833,0.393021,-0.393021,-0.0967833,2077.74,330.632)"
         id="path6804"
         style="fill:#000000;fill-opacity:0.1830357;stroke:none" />
      <path
         d="m 434.06306,512.65387 a 1.8388791,1.8826621 0 1 1 -3.67776,0 1.8388791,1.8826621 0 1 1 3.67776,0 z"
         transform="matrix(-0.0967833,0.393021,-0.393021,-0.0967833,2081.26,320.395)"
         id="path6806"
         style="fill:#000000;fill-opacity:0.1830357;stroke:none" />
      <path
         d="m 434.06306,512.65387 a 1.8388791,1.8826621 0 1 1 -3.67776,0 1.8388791,1.8826621 0 1 1 3.67776,0 z"
         transform="matrix(-0.0967833,0.393021,-0.393021,-0.0967833,2084.7,317.245)"
         id="path6810"
         style="fill:#000000;fill-opacity:0.1830357;stroke:none" />
      <path
         d="m 434.06306,512.65387 a 1.8388791,1.8826621 0 1 1 -3.67776,0 1.8388791,1.8826621 0 1 1 3.67776,0 z"
         transform="matrix(-0.0967833,0.393021,-0.393021,-0.0967833,2085.98,307.068)"
         id="path6812"
         style="fill:#000000;fill-opacity:0.1830357;stroke:none" />
      <path
         d="m 434.06306,512.65387 a 1.8388791,1.8826621 0 1 1 -3.67776,0 1.8388791,1.8826621 0 1 1 3.67776,0 z"
         transform="matrix(-0.0967833,0.393021,-0.393021,-0.0967833,2088.03,301.91)"
         id="path6814"
         style="fill:#000000;fill-opacity:0.1830357;stroke:none" />
      <path
         d="m 434.06306,512.65387 a 1.8388791,1.8826621 0 1 1 -3.67776,0 1.8388791,1.8826621 0 1 1 3.67776,0 z"
         transform="matrix(-0.0967833,0.393021,-0.393021,-0.0967833,2089.72,294.386)"
         id="path6816"
         style="fill:#000000;fill-opacity:0.1830357;stroke:none" />
      <path
         d="m 434.06306,512.65387 a 1.8388791,1.8826621 0 1 1 -3.67776,0 1.8388791,1.8826621 0 1 1 3.67776,0 z"
         transform="matrix(-0.0967833,0.393021,-0.393021,-0.0967833,2086.17,297.954)"
         id="path6818"
         style="fill:#000000;fill-opacity:0.1830357;stroke:none" />
      <path
         d="m 434.06306,512.65387 a 1.8388791,1.8826621 0 1 1 -3.67776,0 1.8388791,1.8826621 0 1 1 3.67776,0 z"
         transform="matrix(-0.0967833,0.393021,-0.393021,-0.0967833,2092.23,288.009)"
         id="path6822"
         style="fill:#000000;fill-opacity:0.1830357;stroke:none" />
      <path
         d="m 434.06306,512.65387 a 1.8388791,1.8826621 0 1 1 -3.67776,0 1.8388791,1.8826621 0 1 1 3.67776,0 z"
         transform="matrix(-0.0967833,0.393021,-0.393021,-0.0967833,2090.66,282.68)"
         id="path6824"
         style="fill:#000000;fill-opacity:0.1830357;stroke:none" />
      <path
         d="m 434.06306,512.65387 a 1.8388791,1.8826621 0 1 1 -3.67776,0 1.8388791,1.8826621 0 1 1 3.67776,0 z"
         transform="matrix(-0.0967833,0.393021,-0.393021,-0.0967833,2093.31,278.448)"
         id="path6826"
         style="fill:#000000;fill-opacity:0.1830357;stroke:none" />
      <path
         d="m 434.06306,512.65387 a 1.8388791,1.8826621 0 1 1 -3.67776,0 1.8388791,1.8826621 0 1 1 3.67776,0 z"
         transform="matrix(-0.0967833,0.393021,-0.393021,-0.0967833,2091.95,274.726)"
         id="path6828"
         style="fill:#000000;fill-opacity:0.1830357;stroke:none" />
      <path
         d="m 434.06306,512.65387 a 1.8388791,1.8826621 0 1 1 -3.67776,0 1.8388791,1.8826621 0 1 1 3.67776,0 z"
         transform="matrix(-0.0967833,0.393021,-0.393021,-0.0967833,2098.99,281.069)"
         id="path6830"
         style="fill:#000000;fill-opacity:0.1830357;stroke:none" />
      <path
         d="m 434.06306,512.65387 a 1.8388791,1.8826621 0 1 1 -3.67776,0 1.8388791,1.8826621 0 1 1 3.67776,0 z"
         transform="matrix(-0.0967833,0.393021,-0.393021,-0.0967833,2096.03,276.176)"
         id="path6832"
         style="fill:#000000;fill-opacity:0.1830357;stroke:none" />
      <path
         d="m 434.06306,512.65387 a 1.8388791,1.8826621 0 1 1 -3.67776,0 1.8388791,1.8826621 0 1 1 3.67776,0 z"
         transform="matrix(-0.0967833,0.393021,-0.393021,-0.0967833,2095.03,283.423)"
         id="path6834"
         style="fill:#000000;fill-opacity:0.1830357;stroke:none" />
      <path
         d="m 434.06306,512.65387 a 1.8388791,1.8826621 0 1 1 -3.67776,0 1.8388791,1.8826621 0 1 1 3.67776,0 z"
         transform="matrix(-0.0967833,0.393021,-0.393021,-0.0967833,2097.16,290.999)"
         id="path6836"
         style="fill:#000000;fill-opacity:0.1830357;stroke:none" />
      <path
         d="m 434.06306,512.65387 a 1.8388791,1.8826621 0 1 1 -3.67776,0 1.8388791,1.8826621 0 1 1 3.67776,0 z"
         transform="matrix(-0.0967833,0.393021,-0.393021,-0.0967833,2093.87,293.077)"
         id="path6838"
         style="fill:#000000;fill-opacity:0.1830357;stroke:none" />
      <path
         d="m 434.06306,512.65387 a 1.8388791,1.8826621 0 1 1 -3.67776,0 1.8388791,1.8826621 0 1 1 3.67776,0 z"
         transform="matrix(-0.0967833,0.393021,-0.393021,-0.0967833,2098.8,285.907)"
         id="path6840"
         style="fill:#000000;fill-opacity:0.1830357;stroke:none" />
      <path
         d="m 434.06306,512.65387 a 1.8388791,1.8826621 0 1 1 -3.67776,0 1.8388791,1.8826621 0 1 1 3.67776,0 z"
         transform="matrix(-0.0967833,0.393021,-0.393021,-0.0967833,2102.73,283.488)"
         id="path6842"
         style="fill:#000000;fill-opacity:0.1830357;stroke:none" />
      <path
         d="m 434.06306,512.65387 a 1.8388791,1.8826621 0 1 1 -3.67776,0 1.8388791,1.8826621 0 1 1 3.67776,0 z"
         transform="matrix(-0.0967833,0.393021,-0.393021,-0.0967833,2101.52,278.693)"
         id="path6844"
         style="fill:#000000;fill-opacity:0.1830357;stroke:none" />
      <path
         d="m 434.06306,512.65387 a 1.8388791,1.8826621 0 1 1 -3.67776,0 1.8388791,1.8826621 0 1 1 3.67776,0 z"
         transform="matrix(-0.0967833,0.393021,-0.393021,-0.0967833,2099.07,276.702)"
         id="path6846"
         style="fill:#000000;fill-opacity:0.1830357;stroke:none" />
      <path
         d="m 434.06306,512.65387 a 1.8388791,1.8826621 0 1 1 -3.67776,0 1.8388791,1.8826621 0 1 1 3.67776,0 z"
         transform="matrix(-0.0967833,0.393021,-0.393021,-0.0967833,2106.44,280.794)"
         id="path6848"
         style="fill:#000000;fill-opacity:0.1830357;stroke:none" />
      <path
         d="m 434.06306,512.65387 a 1.8388791,1.8826621 0 1 1 -3.67776,0 1.8388791,1.8826621 0 1 1 3.67776,0 z"
         transform="matrix(-0.0967833,0.393021,-0.393021,-0.0967833,2110.58,281.146)"
         id="path6850"
         style="fill:#000000;fill-opacity:0.1830357;stroke:none" />
      <path
         d="m 434.06306,512.65387 a 1.8388791,1.8826621 0 1 1 -3.67776,0 1.8388791,1.8826621 0 1 1 3.67776,0 z"
         transform="matrix(-0.0967833,0.393021,-0.393021,-0.0967833,2105.85,278.26)"
         id="path6852"
         style="fill:#000000;fill-opacity:0.1830357;stroke:none" />
      <path
         d="m 434.06306,512.65387 a 1.8388791,1.8826621 0 1 1 -3.67776,0 1.8388791,1.8826621 0 1 1 3.67776,0 z"
         transform="matrix(-0.0967833,0.393021,-0.393021,-0.0967833,2103.75,277.522)"
         id="path6854"
         style="fill:#000000;fill-opacity:0.1830357;stroke:none" />
      <path
         d="m 434.06306,512.65387 a 1.8388791,1.8826621 0 1 1 -3.67776,0 1.8388791,1.8826621 0 1 1 3.67776,0 z"
         transform="matrix(-0.0967833,0.393021,-0.393021,-0.0967833,2101.44,288.5)"
         id="path6856"
         style="fill:#000000;fill-opacity:0.1830357;stroke:none" />
      <path
         d="m 434.06306,512.65387 a 1.8388791,1.8826621 0 1 1 -3.67776,0 1.8388791,1.8826621 0 1 1 3.67776,0 z"
         transform="matrix(-0.0967833,0.393021,-0.393021,-0.0967833,2100.12,292.95)"
         id="path6858"
         style="fill:#000000;fill-opacity:0.1830357;stroke:none" />
      <path
         d="m 434.06306,512.65387 a 1.8388791,1.8826621 0 1 1 -3.67776,0 1.8388791,1.8826621 0 1 1 3.67776,0 z"
         transform="matrix(-0.0967833,0.393021,-0.393021,-0.0967833,2097.55,295.927)"
         id="path6860"
         style="fill:#000000;fill-opacity:0.1830357;stroke:none" />
      <path
         d="m 434.06306,512.65387 a 1.8388791,1.8826621 0 1 1 -3.67776,0 1.8388791,1.8826621 0 1 1 3.67776,0 z"
         transform="matrix(-0.0967833,0.393021,-0.393021,-0.0967833,2100.98,298.49)"
         id="path6862"
         style="fill:#000000;fill-opacity:0.1830357;stroke:none" />
      <path
         d="m 434.06306,512.65387 a 1.8388791,1.8826621 0 1 1 -3.67776,0 1.8388791,1.8826621 0 1 1 3.67776,0 z"
         transform="matrix(-0.0967833,0.393021,-0.393021,-0.0967833,2105.82,300.238)"
         id="path6864"
         style="fill:#000000;fill-opacity:0.1830357;stroke:none" />
      <path
         d="m 434.06306,512.65387 a 1.8388791,1.8826621 0 1 1 -3.67776,0 1.8388791,1.8826621 0 1 1 3.67776,0 z"
         transform="matrix(-0.0967833,0.393021,-0.393021,-0.0967833,2109.51,300.814)"
         id="path6866"
         style="fill:#000000;fill-opacity:0.1830357;stroke:none" />
      <path
         d="m 434.06306,512.65387 a 1.8388791,1.8826621 0 1 1 -3.67776,0 1.8388791,1.8826621 0 1 1 3.67776,0 z"
         transform="matrix(-0.0967833,0.393021,-0.393021,-0.0967833,2108.67,295.443)"
         id="path6868"
         style="fill:#000000;fill-opacity:0.1830357;stroke:none" />
      <path
         d="m 434.06306,512.65387 a 1.8388791,1.8826621 0 1 1 -3.67776,0 1.8388791,1.8826621 0 1 1 3.67776,0 z"
         transform="matrix(-0.0967833,0.393021,-0.393021,-0.0967833,2104.73,294.084)"
         id="path6870"
         style="fill:#000000;fill-opacity:0.1830357;stroke:none" />
      <path
         d="m 434.06306,512.65387 a 1.8388791,1.8826621 0 1 1 -3.67776,0 1.8388791,1.8826621 0 1 1 3.67776,0 z"
         transform="matrix(-0.0967833,0.393021,-0.393021,-0.0967833,2106.22,286.901)"
         id="path6872"
         style="fill:#000000;fill-opacity:0.1830357;stroke:none" />
      <path
         d="m 434.06306,512.65387 a 1.8388791,1.8826621 0 1 1 -3.67776,0 1.8388791,1.8826621 0 1 1 3.67776,0 z"
         transform="matrix(-0.0967833,0.393021,-0.393021,-0.0967833,2110.13,288.364)"
         id="path6874"
         style="fill:#000000;fill-opacity:0.1830357;stroke:none" />
      <path
         d="m 434.06306,512.65387 a 1.8388791,1.8826621 0 1 1 -3.67776,0 1.8388791,1.8826621 0 1 1 3.67776,0 z"
         transform="matrix(-0.0967833,0.393021,-0.393021,-0.0967833,2107.4,284.138)"
         id="path6876"
         style="fill:#000000;fill-opacity:0.1830357;stroke:none" />
      <path
         d="m 434.06306,512.65387 a 1.8388791,1.8826621 0 1 1 -3.67776,0 1.8388791,1.8826621 0 1 1 3.67776,0 z"
         transform="matrix(-0.0967833,0.393021,-0.393021,-0.0967833,2112.96,285.23)"
         id="path6878"
         style="fill:#000000;fill-opacity:0.1830357;stroke:none" />
      <path
         d="m 434.06306,512.65387 a 1.8388791,1.8826621 0 1 1 -3.67776,0 1.8388791,1.8826621 0 1 1 3.67776,0 z"
         transform="matrix(-0.0967833,0.393021,-0.393021,-0.0967833,2113.78,289.541)"
         id="path6880"
         style="fill:#000000;fill-opacity:0.1830357;stroke:none" />
      <path
         d="m 434.06306,512.65387 a 1.8388791,1.8826621 0 1 1 -3.67776,0 1.8388791,1.8826621 0 1 1 3.67776,0 z"
         transform="matrix(-0.0967833,0.393021,-0.393021,-0.0967833,2116.12,293.338)"
         id="path6882"
         style="fill:#000000;fill-opacity:0.1830357;stroke:none" />
      <path
         d="m 434.06306,512.65387 a 1.8388791,1.8826621 0 1 1 -3.67776,0 1.8388791,1.8826621 0 1 1 3.67776,0 z"
         transform="matrix(-0.0967833,0.393021,-0.393021,-0.0967833,2112.32,297.954)"
         id="path6884"
         style="fill:#000000;fill-opacity:0.1830357;stroke:none" />
      <path
         d="m 434.06306,512.65387 a 1.8388791,1.8826621 0 1 1 -3.67776,0 1.8388791,1.8826621 0 1 1 3.67776,0 z"
         transform="matrix(-0.0967833,0.393021,-0.393021,-0.0967833,2107.81,291.236)"
         id="path6886"
         style="fill:#000000;fill-opacity:0.1830357;stroke:none" />
      <path
         d="m 434.06306,512.65387 a 1.8388791,1.8826621 0 1 1 -3.67776,0 1.8388791,1.8826621 0 1 1 3.67776,0 z"
         transform="matrix(-0.0967833,0.393021,-0.393021,-0.0967833,2112.85,291.754)"
         id="path6888"
         style="fill:#000000;fill-opacity:0.1830357;stroke:none" />
      <path
         d="m 434.06306,512.65387 a 1.8388791,1.8826621 0 1 1 -3.67776,0 1.8388791,1.8826621 0 1 1 3.67776,0 z"
         transform="matrix(-0.0967833,0.393021,-0.393021,-0.0967833,2112.78,306.228)"
         id="path6890"
         style="fill:#000000;fill-opacity:0.1830357;stroke:none" />
      <path
         d="m 434.06306,512.65387 a 1.8388791,1.8826621 0 1 1 -3.67776,0 1.8388791,1.8826621 0 1 1 3.67776,0 z"
         transform="matrix(-0.0967833,0.393021,-0.393021,-0.0967833,2115.84,289.769)"
         id="path6892"
         style="fill:#000000;fill-opacity:0.1830357;stroke:none" />
      <path
         d="m 434.06306,512.65387 a 1.8388791,1.8826621 0 1 1 -3.67776,0 1.8388791,1.8826621 0 1 1 3.67776,0 z"
         transform="matrix(-0.0967833,0.393021,-0.393021,-0.0967833,2113.64,300.943)"
         id="path6894"
         style="fill:#000000;fill-opacity:0.1830357;stroke:none" />
      <path
         d="m 434.06306,512.65387 a 1.8388791,1.8826621 0 1 1 -3.67776,0 1.8388791,1.8826621 0 1 1 3.67776,0 z"
         transform="matrix(-0.0967833,0.393021,-0.393021,-0.0967833,2115.09,295.969)"
         id="path6896"
         style="fill:#000000;fill-opacity:0.1830357;stroke:none" />
      <path
         d="m 434.06306,512.65387 a 1.8388791,1.8826621 0 1 1 -3.67776,0 1.8388791,1.8826621 0 1 1 3.67776,0 z"
         transform="matrix(-0.0967833,0.393021,-0.393021,-0.0967833,2106.72,328.163)"
         id="path6898"
         style="fill:#000000;fill-opacity:0.1830357;stroke:none" />
      <path
         d="m 434.06306,512.65387 a 1.8388791,1.8826621 0 1 1 -3.67776,0 1.8388791,1.8826621 0 1 1 3.67776,0 z"
         transform="matrix(-0.0967833,0.393021,-0.393021,-0.0967833,2107.89,323.4)"
         id="path6900"
         style="fill:#000000;fill-opacity:0.1830357;stroke:none" />
      <path
         d="m 434.06306,512.65387 a 1.8388791,1.8826621 0 1 1 -3.67776,0 1.8388791,1.8826621 0 1 1 3.67776,0 z"
         transform="matrix(-0.0967833,0.393021,-0.393021,-0.0967833,2109.35,316.321)"
         id="path6902"
         style="fill:#000000;fill-opacity:0.1830357;stroke:none" />
      <path
         d="m 434.06306,512.65387 a 1.8388791,1.8826621 0 1 1 -3.67776,0 1.8388791,1.8826621 0 1 1 3.67776,0 z"
         transform="matrix(-0.0967833,0.393021,-0.393021,-0.0967833,2105.05,315.539)"
         id="path6904"
         style="fill:#000000;fill-opacity:0.1830357;stroke:none" />
    </g>
    <g
       transform="matrix(0.51654,0.856263,-0.856263,0.51654,943.289,-1575.57)"
       id="g6024">
      <path
         d="m 1874.9306,554.81363 c -0.7997,-0.43509 -1.4795,-0.74975 -1.5107,-0.69927 -0.039,0.0624 -21.4189,-58.05586 -22.698,-61.69998 -0.027,-0.0782 0.1682,0.008 0.4347,0.19113 1.3089,0.90055 3.2099,0.94066 4.9301,0.10402 0.3336,-0.16226 0.7159,-0.4114 0.8495,-0.55366 0.1337,-0.14226 0.996,-1.87411 1.9164,-3.84855 l 1.6734,-3.5899 0.4557,-0.0302 0.4557,-0.0302 1.7566,3.04525 c 0.9662,1.67488 2.1316,3.70102 2.5899,4.50253 0.4583,0.80151 1.068,1.77387 1.3548,2.1608 1.0173,1.37242 2.7816,2.82707 4.4218,3.64577 0.9291,0.4637 2.6075,1.00009 3.7139,1.18686 1.199,0.2024 3.9059,0.14596 5.0122,-0.10452 1.6318,-0.36946 3.3553,-1.12206 4.7782,-2.08649 0.8139,-0.55172 2.4393,-2.12874 2.9132,-2.82663 0.3031,-0.4464 4.8709,-8.44933 5.0622,-8.86916 0.1092,-0.23972 0.1464,-0.24869 0.9161,-0.22096 l 0.8022,0.0289 2.4186,2.51256 c 2.5587,2.65816 2.6835,2.75619 3.9312,3.0879 1.0447,0.27775 1.733,0.30289 2.4937,0.0911 0.4401,-0.12255 0.669,-0.14997 0.6411,-0.0768 -0.024,0.0626 -5.391,14.541 -11.9269,32.17417 -6.5359,17.63316 -11.9237,32.10326 -11.9728,32.15578 -0.055,0.0583 -0.6805,-0.0368 -0.6805,-0.14108 0,-0.23156 0.5613,-0.16153 -0.9912,0.29683 -1.9058,0.56268 -1.9735,0.55533 -3.7411,-0.4063 l 0,10e-5 z"
         id="path5443"
         style="fill:url(#linearGradient6366);fill-opacity:1;stroke:url(#linearGradient6368);stroke-opacity:1" />
      <path
         d="m 1874.8168,558.4943 c -1.2252,-3.4689 -2.2011,-6.3345 -2.1688,-6.3678 0.032,-0.033 0.7825,0.3243 1.6671,0.7953 2.0955,1.1155 2.6381,1.1796 4.7763,0.5645 1.712,-0.4926 1.6145,-0.2551 1.7677,-0.2349 0.5042,0.067 0.2159,0.07 0.3024,0.099 0.1008,0.035 -0.6729,2.1195 -1.9605,5.7224 -1.0844,3.0346 -2.0135,5.565 -2.0644,5.6229 -0.051,0.057 -1.0949,-2.7331 -2.3198,-6.2019 z"
         id="path5463"
         style="fill:#000000;fill-opacity:1;stroke:#000000;stroke-width:0.41854754;stroke-linejoin:miter;stroke-miterlimit:4;stroke-opacity:1;stroke-dasharray:none" />
      <path
         d="m 1860.5306,484.18222 -16.1107,-9.30152 0,-321.2589 16.1107,0 0,330.56042 z"
         id="path5314"
         style="fill:url(#linearGradient6370);fill-opacity:1;stroke:none" />
      <path
         d="m 1860.6856,484.25483 -3.5176,7.53768 -0.3015,0.40201 c -2.6733,1.8819 -6.0098,1.28312 -6.9347,-1.30653 l -5.7287,-15.57789 16.4825,8.94473 z"
         id="path5423"
         style="fill:url(#linearGradient6372);fill-opacity:1;stroke:none" />
      <path
         d="m 1894.3096,153.50517 15.5173,0 0,322.52155 -15.3958,8.88877 -0.1215,-331.41032 z"
         id="path5296"
         style="fill:url(#linearGradient6374);fill-opacity:1;stroke:none" />
      <path
         d="m 1894.6554,484.95834 4.5226,4.62312 0.402,0.50251 c 2.1926,1.12842 4.9571,1.42333 5.9297,-1.10553 l 4.5226,-13.26633 -15.3769,9.24623 z"
         id="path5433"
         style="fill:url(#linearGradient6376);fill-opacity:1;stroke:none" />
      <path
         d="m 1860.6992,153.54077 33.6723,0 0,330.46194 -33.5409,0 -0.1314,-330.46194 z"
         id="path3762"
         style="fill:url(#linearGradient6378);fill-opacity:1;stroke:none" />
      <path
         d="m 1843.6827,143.83779 65.9091,0 0.062,-24.45845 -8.0719,-8.13174 -47.7977,0.14387 -9.5753,8.47304 -0.1326,22.08417 -0.3935,1.88911 z"
         id="path3658"
         style="fill:url(#radialGradient6380);fill-opacity:1;stroke:none" />
      <path
         d="m 1910.0496,475.85398 -15.577,8.63586 -0.8385,0 -0.6859,0 -32.8103,-0.39408 -15.701,-9.06499 -0.464,-0.26787"
         id="path3754"
         style="fill:none;stroke:#000000;stroke-width:1px;stroke-linecap:butt;stroke-linejoin:miter;stroke-opacity:1" />
      <path
         d="m 1876.1767,499.23892 c -3.4807,-0.35712 -6.7265,-2.09005 -8.8014,-4.69899 -0.3194,-0.40164 -0.6515,-0.87652 -0.738,-1.05528 -0.087,-0.17876 -1.2556,-2.22451 -2.598,-4.54612 l -2.4407,-4.22111 0.5086,-0.0267 c 0.7077,-0.0371 30.9103,0.34424 30.9551,0.39085 0.02,0.0208 -1.0487,1.91472 -2.375,4.20869 -1.3263,2.29397 -2.4382,4.23869 -2.4708,4.3216 -0.1315,0.33417 -0.9107,1.29901 -1.6263,2.01372 -1.7023,1.70035 -4.3075,3.0338 -6.7386,3.44916 -1.1507,0.19659 -2.6889,0.26531 -3.6748,0.16415 l 0,0 z"
         id="path5403"
         style="fill:url(#linearGradient6382);fill-opacity:1;stroke:url(#linearGradient6384);stroke-width:0.101;stroke-linejoin:miter;stroke-miterlimit:4;stroke-opacity:1;stroke-dasharray:none" />
      <path
         d="m 1863.79,111.18908 38.1574,0 8.0648,8.06481 0,16.51852 0,340.99999 -33,89 -33,-90 0,-340.99999 0,-15.05555 9.8889,-8.44042 9.8889,-0.0874 z"
         id="path2856"
         style="fill:none;stroke:#737373;stroke-width:1;stroke-linecap:butt;stroke-linejoin:miter;stroke-miterlimit:4;stroke-opacity:1;stroke-dasharray:none" />
      <path
         d="m 1909.9994,144.04989 -65.9867,0 0,9.50742 65.9644,0 0.022,-9.50742 z"
         id="path3642"
         style="fill:url(#linearGradient6386);fill-opacity:1;stroke:#737373;stroke-width:1;stroke-linecap:butt;stroke-linejoin:miter;stroke-miterlimit:4;stroke-opacity:1;stroke-dasharray:none" />
      <path
         d="m 1844.5172,146.00359 64.9626,0"
         id="path3718"
         style="fill:none;stroke:url(#radialGradient6388);stroke-width:0.88999999;stroke-linecap:butt;stroke-linejoin:miter;stroke-miterlimit:4;stroke-opacity:1;stroke-dasharray:none" />
      <path
         d="m 444.16447,545.57135 a 3.31565,3.1167107 0 1 1 -6.6313,0 3.31565,3.1167107 0 1 1 6.6313,0 z"
         transform="matrix(0.477125,0,0,0.477125,1689.57,-111.617)"
         id="path3676"
         style="fill:url(#radialGradient6390);fill-opacity:1;stroke:none" />
      <path
         d="m 444.16447,545.57135 a 3.31565,3.1167107 0 1 1 -6.6313,0 3.31565,3.1167107 0 1 1 6.6313,0 z"
         transform="matrix(0.477125,0,0,0.477125,1675.57,-111.617)"
         id="path3692"
         style="fill:url(#radialGradient6392);fill-opacity:1;stroke:none" />
      <path
         d="m 444.16447,545.57135 a 3.31565,3.1167107 0 1 1 -6.6313,0 3.31565,3.1167107 0 1 1 6.6313,0 z"
         transform="matrix(0.477125,0,0,0.477125,1659.57,-111.617)"
         id="path3696"
         style="fill:url(#radialGradient6394);fill-opacity:1;stroke:none" />
      <path
         d="m 444.16447,545.57135 a 3.31565,3.1167107 0 1 1 -6.6313,0 3.31565,3.1167107 0 1 1 6.6313,0 z"
         transform="matrix(0.477125,0,0,0.477125,1645.57,-111.617)"
         id="path3700"
         style="fill:url(#radialGradient6396);fill-opacity:1;stroke:none" />
      <path
         d="m 1844.5183,151.65333 64.9615,0"
         id="path3736"
         style="fill:none;stroke:url(#radialGradient6398);stroke-width:0.88999999;stroke-linecap:butt;stroke-linejoin:miter;stroke-miterlimit:4;stroke-opacity:1;stroke-dasharray:none" />
      <path
         d="m 1894.3839,484.4988 0,-330.4614"
         id="path3756"
         style="fill:none;stroke:#000000;stroke-width:1.00120032px;stroke-linecap:butt;stroke-linejoin:miter;stroke-opacity:1" />
      <path
         d="m 1860.7597,484.4947 0,-330.44506"
         id="path3758"
         style="fill:none;stroke:#000000;stroke-width:1.00080097px;stroke-linecap:butt;stroke-linejoin:miter;stroke-opacity:1" />
      <rect
         width="5.2901044"
         height="5.2127295"
         ry="0"
         x="2433.1531"
         y="-2226.6321"
         transform="matrix(0.271059,0.962563,-0.556703,0.830711,0,0)"
         id="rect5599"
         style="fill:#af8e00;fill-opacity:0.30357145;stroke:none" />
      <rect
         width="5.2901044"
         height="5.2127295"
         ry="0"
         x="2328.3721"
         y="-2344.9824"
         transform="matrix(0.166123,0.986105,-0.642693,0.766124,0,0)"
         id="rect5772"
         style="fill:#af8e00;fill-opacity:0.30357145;stroke:none" />
      <rect
         width="5.2901044"
         height="5.2127295"
         ry="0"
         x="2397.3503"
         y="-2266.4187"
         transform="matrix(0.223941,0.974603,-0.596432,0.802664,0,0)"
         id="rect5774"
         style="fill:#af8e00;fill-opacity:0.30357145;stroke:none" />
      <rect
         width="5.2901044"
         height="5.2127295"
         ry="0"
         x="2359.207"
         y="-2303.6345"
         transform="matrix(0.194843,0.980834,-0.620051,0.784562,0,0)"
         id="rect5776"
         style="fill:#af8e00;fill-opacity:0.30357145;stroke:none" />
      <rect
         width="5.2901044"
         height="5.2127295"
         ry="0"
         x="2512.5613"
         y="-1997.8507"
         transform="matrix(0.402784,0.915295,-0.43528,0.900295,0,0)"
         id="rect5778"
         style="fill:#af8e00;fill-opacity:0.30357145;stroke:none" />
      <rect
         width="5.2901044"
         height="5.2127295"
         ry="0"
         x="2372.9666"
         y="-2303.8606"
         transform="matrix(0.201023,0.979587,-0.615092,0.788455,0,0)"
         id="rect5780"
         style="fill:#af8e00;fill-opacity:0.30357145;stroke:none" />
      <rect
         width="5.2901044"
         height="5.2127295"
         ry="0"
         x="2418.1689"
         y="-2234.1824"
         transform="matrix(0.26308,0.964774,-0.563563,0.826073,0,0)"
         id="rect5782"
         style="fill:#af8e00;fill-opacity:0.30357145;stroke:none" />
      <rect
         width="5.2901044"
         height="5.2127295"
         ry="0"
         x="2533.3101"
         y="-1917.7312"
         transform="matrix(0.441579,0.897222,-0.396359,0.918096,0,0)"
         id="rect5784"
         style="fill:#af8e00;fill-opacity:0.30357145;stroke:none" />
      <rect
         width="5.2901044"
         height="5.2127295"
         ry="0"
         x="2290.7739"
         y="-2367.354"
         transform="matrix(0.140084,0.99014,-0.662656,0.748924,0,0)"
         id="rect5786"
         style="fill:#af8e00;fill-opacity:0.30357145;stroke:none" />
      <rect
         width="5.2901044"
         height="5.2127295"
         ry="0"
         x="2518.4219"
         y="-2001.4292"
         transform="matrix(0.393427,0.919356,-0.44444,0.895809,0,0)"
         id="rect5788"
         style="fill:#af8e00;fill-opacity:0.30357145;stroke:none" />
      <rect
         width="5.2901044"
         height="5.2127295"
         ry="0"
         x="2526.9307"
         y="-1972.7831"
         transform="matrix(0.404824,0.914394,-0.43327,0.901264,0,0)"
         id="rect5790"
         style="fill:#af8e00;fill-opacity:0.30357145;stroke:none" />
      <rect
         width="5.2901044"
         height="5.2127295"
         ry="0"
         x="2403.1018"
         y="-2258.6428"
         transform="matrix(0.223941,0.974603,-0.596432,0.802664,0,0)"
         id="rect5792"
         style="fill:#af8e00;fill-opacity:0.30357145;stroke:none" />
      <rect
         width="5.2901044"
         height="5.2127295"
         ry="0"
         x="2537.8025"
         y="-1819.546"
         transform="matrix(0.492246,0.870456,-0.34312,0.939292,0,0)"
         id="rect5794"
         style="fill:#af8e00;fill-opacity:0.30357145;stroke:none" />
      <rect
         width="5.2901044"
         height="5.2127295"
         ry="0"
         x="2549.0742"
         y="-1644.5043"
         transform="matrix(0.567171,0.8236,-0.258856,0.965916,0,0)"
         id="rect5796"
         style="fill:#af8e00;fill-opacity:0.30357145;stroke:none" />
      <rect
         width="5.2901044"
         height="5.2127295"
         ry="0"
         x="2554.2573"
         y="-1637.251"
         transform="matrix(0.567171,0.8236,-0.258856,0.965916,0,0)"
         id="rect5798"
         style="fill:#af8e00;fill-opacity:0.30357145;stroke:none" />
      <rect
         width="5.2901044"
         height="5.2127295"
         ry="0"
         x="2556.6567"
         y="-1627.8651"
         transform="matrix(0.565782,0.824555,-0.260484,0.965478,0,0)"
         id="rect5800"
         style="fill:#af8e00;fill-opacity:0.30357145;stroke:none" />
      <rect
         width="5.2901044"
         height="5.2127295"
         ry="0"
         x="2508.0217"
         y="-1289.3973"
         transform="matrix(0.693387,0.720566,-0.0985661,0.995131,0,0)"
         id="rect5802"
         style="fill:#af8e00;fill-opacity:0.30357145;stroke:none" />
      <rect
         width="5.2901044"
         height="5.2127295"
         ry="0"
         x="2499.8513"
         y="-1284.6992"
         transform="matrix(0.697138,0.716937,-0.0933713,0.995631,0,0)"
         id="rect5804"
         style="fill:#af8e00;fill-opacity:0.30357145;stroke:none" />
      <rect
         width="5.2901044"
         height="5.2127295"
         ry="0"
         x="2493.04"
         y="-1290.0521"
         transform="matrix(0.697138,0.716937,-0.0933713,0.995631,0,0)"
         id="rect5806"
         style="fill:#af8e00;fill-opacity:0.30357145;stroke:none" />
      <rect
         width="5.2901044"
         height="5.2127295"
         ry="0"
         x="2489.98"
         y="-1298.024"
         transform="matrix(0.697138,0.716937,-0.0933713,0.995631,0,0)"
         id="rect5808"
         style="fill:#af8e00;fill-opacity:0.30357145;stroke:none" />
      <rect
         width="5.2901044"
         height="5.2127295"
         ry="0"
         x="2530.3154"
         y="-1498.8204"
         transform="matrix(0.62635,0.779542,-0.186936,0.982372,0,0)"
         id="rect5810"
         style="fill:#af8e00;fill-opacity:0.30357145;stroke:none" />
      <rect
         width="5.2901044"
         height="5.2127295"
         ry="0"
         x="2461.8347"
         y="-1164.4574"
         transform="matrix(0.741849,0.670567,-0.029078,0.999577,0,0)"
         id="rect5812"
         style="fill:#af8e00;fill-opacity:0.30357145;stroke:none" />
      <rect
         width="5.2901044"
         height="5.2127295"
         ry="0"
         x="2533.9788"
         y="-1969.7808"
         transform="matrix(0.404824,0.914394,-0.43327,0.901264,0,0)"
         id="rect5814"
         style="fill:#af8e00;fill-opacity:0.30357145;stroke:none" />
      <path
         d="m 434.06306,512.65387 a 1.8388791,1.8826621 0 1 1 -3.67776,0 1.8388791,1.8826621 0 1 1 3.67776,0 z"
         transform="matrix(0.404762,0,0,0.404762,1723.54,-92.9613)"
         id="path5816"
         style="fill:#ff2e2e;fill-opacity:0.1830357;stroke:none" />
      <path
         d="m 434.06306,512.65387 a 1.8388791,1.8826621 0 1 1 -3.67776,0 1.8388791,1.8826621 0 1 1 3.67776,0 z"
         transform="matrix(0.404762,0,0,0.404762,1726.29,-88.3252)"
         id="path5818"
         style="fill:#ff2e2e;fill-opacity:0.1830357;stroke:none" />
      <path
         d="m 434.06306,512.65387 a 1.8388791,1.8826621 0 1 1 -3.67776,0 1.8388791,1.8826621 0 1 1 3.67776,0 z"
         transform="matrix(0.404762,0,0,0.404762,1721.06,-89.0799)"
         id="path5820"
         style="fill:#ff2e2e;fill-opacity:0.1830357;stroke:none" />
      <path
         d="m 434.06306,512.65387 a 1.8388791,1.8826621 0 1 1 -3.67776,0 1.8388791,1.8826621 0 1 1 3.67776,0 z"
         transform="matrix(0.404762,0,0,0.404762,1717.02,-90.5354)"
         id="path5822"
         style="fill:#ff2e2e;fill-opacity:0.1830357;stroke:none" />
      <path
         d="m 434.06306,512.65387 a 1.8388791,1.8826621 0 1 1 -3.67776,0 1.8388791,1.8826621 0 1 1 3.67776,0 z"
         transform="matrix(0.404762,0,0,0.404762,1711.84,-91.7753)"
         id="path5824"
         style="fill:#ff2e2e;fill-opacity:0.1830357;stroke:none" />
      <path
         d="m 434.06306,512.65387 a 1.8388791,1.8826621 0 1 1 -3.67776,0 1.8388791,1.8826621 0 1 1 3.67776,0 z"
         transform="matrix(0.404762,0,0,0.404762,1711.9,-83.5813)"
         id="path5826"
         style="fill:#ff2e2e;fill-opacity:0.1830357;stroke:none" />
      <path
         d="m 434.06306,512.65387 a 1.8388791,1.8826621 0 1 1 -3.67776,0 1.8388791,1.8826621 0 1 1 3.67776,0 z"
         transform="matrix(0.404762,0,0,0.404762,1718.21,-84.4438)"
         id="path5828"
         style="fill:#ff2e2e;fill-opacity:0.1830357;stroke:none" />
      <path
         d="m 434.06306,512.65387 a 1.8388791,1.8826621 0 1 1 -3.67776,0 1.8388791,1.8826621 0 1 1 3.67776,0 z"
         transform="matrix(0.404762,0,0,0.404762,1714.54,-88.0017)"
         id="path5830"
         style="fill:#ff2e2e;fill-opacity:0.1830357;stroke:none" />
      <path
         d="m 434.06306,512.65387 a 1.8388791,1.8826621 0 1 1 -3.67776,0 1.8388791,1.8826621 0 1 1 3.67776,0 z"
         transform="matrix(0.404762,0,0,0.404762,1709.15,-86.0071)"
         id="path5832"
         style="fill:#ff2e2e;fill-opacity:0.1830357;stroke:none" />
      <path
         d="m 434.06306,512.65387 a 1.8388791,1.8826621 0 1 1 -3.67776,0 1.8388791,1.8826621 0 1 1 3.67776,0 z"
         transform="matrix(0.404762,0,0,0.404762,1711.14,-78.7834)"
         id="path5834"
         style="fill:#ff2e2e;fill-opacity:0.1830357;stroke:none" />
      <path
         d="m 434.06306,512.65387 a 1.8388791,1.8826621 0 1 1 -3.67776,0 1.8388791,1.8826621 0 1 1 3.67776,0 z"
         transform="matrix(0.404762,0,0,0.404762,1721.55,-76.1958)"
         id="path5836"
         style="fill:#ff2e2e;fill-opacity:0.1830357;stroke:none" />
      <path
         d="m 434.06306,512.65387 a 1.8388791,1.8826621 0 1 1 -3.67776,0 1.8388791,1.8826621 0 1 1 3.67776,0 z"
         transform="matrix(0.404762,0,0,0.404762,1715.35,-81.2093)"
         id="path5838"
         style="fill:#ff2e2e;fill-opacity:0.1830357;stroke:none" />
      <path
         d="m 434.06306,512.65387 a 1.8388791,1.8826621 0 1 1 -3.67776,0 1.8388791,1.8826621 0 1 1 3.67776,0 z"
         transform="matrix(0.404762,0,0,0.404762,1715.83,-77.0044)"
         id="path5840"
         style="fill:#ff2e2e;fill-opacity:0.1830357;stroke:none" />
      <path
         d="m 434.06306,512.65387 a 1.8388791,1.8826621 0 1 1 -3.67776,0 1.8388791,1.8826621 0 1 1 3.67776,0 z"
         transform="matrix(0.404762,0,0,0.404762,1719.34,-80.8319)"
         id="path5842"
         style="fill:#ff2e2e;fill-opacity:0.1830357;stroke:none" />
      <path
         d="m 434.06306,512.65387 a 1.8388791,1.8826621 0 1 1 -3.67776,0 1.8388791,1.8826621 0 1 1 3.67776,0 z"
         transform="matrix(0.404762,0,0,0.404762,1722.68,-84.6594)"
         id="path5844"
         style="fill:#ff2e2e;fill-opacity:0.1830357;stroke:none" />
      <path
         d="m 434.06306,512.65387 a 1.8388791,1.8826621 0 1 1 -3.67776,0 1.8388791,1.8826621 0 1 1 3.67776,0 z"
         transform="matrix(0.404762,0,0,0.404762,1723.17,-81.4788)"
         id="path5846"
         style="fill:#ff2e2e;fill-opacity:0.1830357;stroke:none" />
      <path
         d="m 434.06306,512.65387 a 1.8388791,1.8826621 0 1 1 -3.67776,0 1.8388791,1.8826621 0 1 1 3.67776,0 z"
         transform="matrix(0.404762,0,0,0.404762,1724.67,-78.2982)"
         id="path5848"
         style="fill:#ff2e2e;fill-opacity:0.1830357;stroke:none" />
      <path
         d="m 434.06306,512.65387 a 1.8388791,1.8826621 0 1 1 -3.67776,0 1.8388791,1.8826621 0 1 1 3.67776,0 z"
         transform="matrix(0.404762,0,0,0.404762,1726.45,-70.9128)"
         id="path5850"
         style="fill:#ff2e2e;fill-opacity:0.1830357;stroke:none" />
      <path
         d="m 434.06306,512.65387 a 1.8388791,1.8826621 0 1 1 -3.67776,0 1.8388791,1.8826621 0 1 1 3.67776,0 z"
         transform="matrix(0.404762,0,0,0.404762,1726.45,-74.5786)"
         id="path5852"
         style="fill:#ff2e2e;fill-opacity:0.1830357;stroke:none" />
      <path
         d="m 434.06306,512.65387 a 1.8388791,1.8826621 0 1 1 -3.67776,0 1.8388791,1.8826621 0 1 1 3.67776,0 z"
         transform="matrix(0.404762,0,0,0.404762,1722.19,-71.8292)"
         id="path5854"
         style="fill:#ff2e2e;fill-opacity:0.1830357;stroke:none" />
      <path
         d="m 434.06306,512.65387 a 1.8388791,1.8826621 0 1 1 -3.67776,0 1.8388791,1.8826621 0 1 1 3.67776,0 z"
         transform="matrix(0.404762,0,0,0.404762,1717.18,-72.584)"
         id="path5856"
         style="fill:#ff2e2e;fill-opacity:0.1830357;stroke:none" />
      <path
         d="m 434.06306,512.65387 a 1.8388791,1.8826621 0 1 1 -3.67776,0 1.8388791,1.8826621 0 1 1 3.67776,0 z"
         transform="matrix(0.404762,0,0,0.404762,1712.11,-73.9856)"
         id="path5858"
         style="fill:#ff2e2e;fill-opacity:0.1830357;stroke:none" />
      <path
         d="m 434.06306,512.65387 a 1.8388791,1.8826621 0 1 1 -3.67776,0 1.8388791,1.8826621 0 1 1 3.67776,0 z"
         transform="matrix(0.404762,0,0,0.404762,1708.72,-75.9802)"
         id="path5860"
         style="fill:#ff2e2e;fill-opacity:0.1830357;stroke:none" />
      <path
         d="m 434.06306,512.65387 a 1.8388791,1.8826621 0 1 1 -3.67776,0 1.8388791,1.8826621 0 1 1 3.67776,0 z"
         transform="matrix(0.404762,0,0,0.404762,1706.67,-80.2929)"
         id="path5862"
         style="fill:#ff2e2e;fill-opacity:0.1830357;stroke:none" />
      <path
         d="m 434.06306,512.65387 a 1.8388791,1.8826621 0 1 1 -3.67776,0 1.8388791,1.8826621 0 1 1 3.67776,0 z"
         transform="matrix(0.404762,0,0,0.404762,1705.43,-83.5813)"
         id="path5864"
         style="fill:#ff2e2e;fill-opacity:0.1830357;stroke:none" />
      <path
         d="m 434.06306,512.65387 a 1.8388791,1.8826621 0 1 1 -3.67776,0 1.8388791,1.8826621 0 1 1 3.67776,0 z"
         transform="matrix(0.404762,0,0,0.404762,1704.67,-91.6136)"
         id="path5866"
         style="fill:#ff2e2e;fill-opacity:0.1830357;stroke:none" />
      <path
         d="m 434.06306,512.65387 a 1.8388791,1.8826621 0 1 1 -3.67776,0 1.8388791,1.8826621 0 1 1 3.67776,0 z"
         transform="matrix(0.404762,0,0,0.404762,1703.06,-87.5705)"
         id="path5868"
         style="fill:#ff2e2e;fill-opacity:0.1830357;stroke:none" />
      <path
         d="m 434.06306,512.65387 a 1.8388791,1.8826621 0 1 1 -3.67776,0 1.8388791,1.8826621 0 1 1 3.67776,0 z"
         transform="matrix(0.404762,0,0,0.404762,1696.91,-91.7214)"
         id="path5870"
         style="fill:#ff2e2e;fill-opacity:0.1830357;stroke:none" />
      <path
         d="m 434.06306,512.65387 a 1.8388791,1.8826621 0 1 1 -3.67776,0 1.8388791,1.8826621 0 1 1 3.67776,0 z"
         transform="matrix(0.404762,0,0,0.404762,1700.63,-93.3387)"
         id="path5872"
         style="fill:#ff2e2e;fill-opacity:0.1830357;stroke:none" />
      <path
         d="m 434.06306,512.65387 a 1.8388791,1.8826621 0 1 1 -3.67776,0 1.8388791,1.8826621 0 1 1 3.67776,0 z"
         transform="matrix(0.404762,0,0,0.404762,1696.59,-83.3656)"
         id="path5874"
         style="fill:#ff2e2e;fill-opacity:0.1830357;stroke:none" />
      <path
         d="m 434.06306,512.65387 a 1.8388791,1.8826621 0 1 1 -3.67776,0 1.8388791,1.8826621 0 1 1 3.67776,0 z"
         transform="matrix(0.404762,0,0,0.404762,1698.1,-87.0314)"
         id="path5876"
         style="fill:#ff2e2e;fill-opacity:0.1830357;stroke:none" />
      <path
         d="m 434.06306,512.65387 a 1.8388791,1.8826621 0 1 1 -3.67776,0 1.8388791,1.8826621 0 1 1 3.67776,0 z"
         transform="matrix(0.404762,0,0,0.404762,1699.34,-81.2093)"
         id="path5878"
         style="fill:#ff2e2e;fill-opacity:0.1830357;stroke:none" />
      <path
         d="m 434.06306,512.65387 a 1.8388791,1.8826621 0 1 1 -3.67776,0 1.8388791,1.8826621 0 1 1 3.67776,0 z"
         transform="matrix(0.404762,0,0,0.404762,1703.11,-75.6567)"
         id="path5880"
         style="fill:#ff2e2e;fill-opacity:0.1830357;stroke:none" />
      <path
         d="m 434.06306,512.65387 a 1.8388791,1.8826621 0 1 1 -3.67776,0 1.8388791,1.8826621 0 1 1 3.67776,0 z"
         transform="matrix(0.404762,0,0,0.404762,1696.37,-77.4357)"
         id="path5882"
         style="fill:#ff2e2e;fill-opacity:0.1830357;stroke:none" />
      <path
         d="m 434.06306,512.65387 a 1.8388791,1.8826621 0 1 1 -3.67776,0 1.8388791,1.8826621 0 1 1 3.67776,0 z"
         transform="matrix(0.404762,0,0,0.404762,1702.68,-72.2605)"
         id="path5884"
         style="fill:#ff2e2e;fill-opacity:0.1830357;stroke:none" />
      <path
         d="m 434.06306,512.65387 a 1.8388791,1.8826621 0 1 1 -3.67776,0 1.8388791,1.8826621 0 1 1 3.67776,0 z"
         transform="matrix(0.404762,0,0,0.404762,1693.08,-73.2309)"
         id="path5886"
         style="fill:#ff2e2e;fill-opacity:0.1830357;stroke:none" />
      <path
         d="m 434.06306,512.65387 a 1.8388791,1.8826621 0 1 1 -3.67776,0 1.8388791,1.8826621 0 1 1 3.67776,0 z"
         transform="matrix(0.404762,0,0,0.404762,1697.23,-72.4762)"
         id="path5888"
         style="fill:#ff2e2e;fill-opacity:0.1830357;stroke:none" />
      <path
         d="m 434.06306,512.65387 a 1.8388791,1.8826621 0 1 1 -3.67776,0 1.8388791,1.8826621 0 1 1 3.67776,0 z"
         transform="matrix(0.404762,0,0,0.404762,1707.59,-72.0988)"
         id="path5890"
         style="fill:#ff2e2e;fill-opacity:0.1830357;stroke:none" />
      <path
         d="m 434.06306,512.65387 a 1.8388791,1.8826621 0 1 1 -3.67776,0 1.8388791,1.8826621 0 1 1 3.67776,0 z"
         transform="matrix(0.404762,0,0,0.404762,1709.36,-69.9425)"
         id="path5892"
         style="fill:#ff2e2e;fill-opacity:0.1830357;stroke:none" />
      <path
         d="m 434.06306,512.65387 a 1.8388791,1.8826621 0 1 1 -3.67776,0 1.8388791,1.8826621 0 1 1 3.67776,0 z"
         transform="matrix(0.404762,0,0,0.404762,1727.37,-83.2039)"
         id="path5894"
         style="fill:#ff2e2e;fill-opacity:0.1830357;stroke:none" />
      <path
         d="m 434.06306,512.65387 a 1.8388791,1.8826621 0 1 1 -3.67776,0 1.8388791,1.8826621 0 1 1 3.67776,0 z"
         transform="matrix(0.404762,0,0,0.404762,1729.85,-85.9532)"
         id="path5896"
         style="fill:#ff2e2e;fill-opacity:0.1830357;stroke:none" />
      <path
         d="m 434.06306,512.65387 a 1.8388791,1.8826621 0 1 1 -3.67776,0 1.8388791,1.8826621 0 1 1 3.67776,0 z"
         transform="matrix(0.404762,0,0,0.404762,1730.23,-77.4896)"
         id="path5898"
         style="fill:#ff2e2e;fill-opacity:0.1830357;stroke:none" />
      <path
         d="m 434.06306,512.65387 a 1.8388791,1.8826621 0 1 1 -3.67776,0 1.8388791,1.8826621 0 1 1 3.67776,0 z"
         transform="matrix(0.404762,0,0,0.404762,1730.55,-81.5866)"
         id="path5900"
         style="fill:#ff2e2e;fill-opacity:0.1830357;stroke:none" />
      <path
         d="m 434.06306,512.65387 a 1.8388791,1.8826621 0 1 1 -3.67776,0 1.8388791,1.8826621 0 1 1 3.67776,0 z"
         transform="matrix(0.404762,0,0,0.404762,1730.6,-73.6082)"
         id="path5902"
         style="fill:#ff2e2e;fill-opacity:0.1830357;stroke:none" />
      <path
         d="m 434.06306,512.65387 a 1.8388791,1.8826621 0 1 1 -3.67776,0 1.8388791,1.8826621 0 1 1 3.67776,0 z"
         transform="matrix(0.404762,0,0,0.404762,1731.63,-68.6486)"
         id="path5904"
         style="fill:#ff2e2e;fill-opacity:0.1830357;stroke:none" />
      <path
         d="m 434.06306,512.65387 a 1.8388791,1.8826621 0 1 1 -3.67776,0 1.8388791,1.8826621 0 1 1 3.67776,0 z"
         transform="matrix(0.404762,0,0,0.404762,1724.51,-66.8697)"
         id="path5906"
         style="fill:#ff2e2e;fill-opacity:0.1830357;stroke:none" />
      <path
         d="m 434.06306,512.65387 a 1.8388791,1.8826621 0 1 1 -3.67776,0 1.8388791,1.8826621 0 1 1 3.67776,0 z"
         transform="matrix(0.404762,0,0,0.404762,1729.15,-66.1689)"
         id="path5908"
         style="fill:#ff2e2e;fill-opacity:0.1830357;stroke:none" />
      <path
         d="m 434.06306,512.65387 a 1.8388791,1.8826621 0 1 1 -3.67776,0 1.8388791,1.8826621 0 1 1 3.67776,0 z"
         transform="matrix(0.404762,0,0,0.404762,1718.37,-67.1392)"
         id="path5910"
         style="fill:#ff2e2e;fill-opacity:0.1830357;stroke:none" />
      <path
         d="m 434.06306,512.65387 a 1.8388791,1.8826621 0 1 1 -3.67776,0 1.8388791,1.8826621 0 1 1 3.67776,0 z"
         transform="matrix(0.404762,0,0,0.404762,1712.11,-66.4923)"
         id="path5912"
         style="fill:#ff2e2e;fill-opacity:0.1830357;stroke:none" />
      <path
         d="m 434.06306,512.65387 a 1.8388791,1.8826621 0 1 1 -3.67776,0 1.8388791,1.8826621 0 1 1 3.67776,0 z"
         transform="matrix(0.404762,0,0,0.404762,1714.49,-69.7268)"
         id="path5914"
         style="fill:#ff2e2e;fill-opacity:0.1830357;stroke:none" />
      <path
         d="m 434.06306,512.65387 a 1.8388791,1.8826621 0 1 1 -3.67776,0 1.8388791,1.8826621 0 1 1 3.67776,0 z"
         transform="matrix(0.404762,0,0,0.404762,1704.3,-68.5408)"
         id="path5916"
         style="fill:#ff2e2e;fill-opacity:0.1830357;stroke:none" />
      <path
         d="m 434.06306,512.65387 a 1.8388791,1.8826621 0 1 1 -3.67776,0 1.8388791,1.8826621 0 1 1 3.67776,0 z"
         transform="matrix(0.404762,0,0,0.404762,1698.8,-69.2955)"
         id="path5918"
         style="fill:#ff2e2e;fill-opacity:0.1830357;stroke:none" />
      <path
         d="m 434.06306,512.65387 a 1.8388791,1.8826621 0 1 1 -3.67776,0 1.8388791,1.8826621 0 1 1 3.67776,0 z"
         transform="matrix(0.404762,0,0,0.404762,1691.09,-69.1338)"
         id="path5920"
         style="fill:#ff2e2e;fill-opacity:0.1830357;stroke:none" />
      <path
         d="m 434.06306,512.65387 a 1.8388791,1.8826621 0 1 1 -3.67776,0 1.8388791,1.8826621 0 1 1 3.67776,0 z"
         transform="matrix(0.404762,0,0,0.404762,1695.4,-66.5462)"
         id="path5922"
         style="fill:#ff2e2e;fill-opacity:0.1830357;stroke:none" />
      <path
         d="m 434.06306,512.65387 a 1.8388791,1.8826621 0 1 1 -3.67776,0 1.8388791,1.8826621 0 1 1 3.67776,0 z"
         transform="matrix(0.404762,0,0,0.404762,1686.02,-66.8697)"
         id="path5924"
         style="fill:#ff2e2e;fill-opacity:0.1830357;stroke:none" />
      <path
         d="m 434.06306,512.65387 a 1.8388791,1.8826621 0 1 1 -3.67776,0 1.8388791,1.8826621 0 1 1 3.67776,0 z"
         transform="matrix(0.404762,0,0,0.404762,1684.3,-70.0502)"
         id="path5926"
         style="fill:#ff2e2e;fill-opacity:0.1830357;stroke:none" />
      <path
         d="m 434.06306,512.65387 a 1.8388791,1.8826621 0 1 1 -3.67776,0 1.8388791,1.8826621 0 1 1 3.67776,0 z"
         transform="matrix(0.404762,0,0,0.404762,1679.5,-67.247)"
         id="path5928"
         style="fill:#ff2e2e;fill-opacity:0.1830357;stroke:none" />
      <path
         d="m 434.06306,512.65387 a 1.8388791,1.8826621 0 1 1 -3.67776,0 1.8388791,1.8826621 0 1 1 3.67776,0 z"
         transform="matrix(0.404762,0,0,0.404762,1674.76,-68.8104)"
         id="path5930"
         style="fill:#ff2e2e;fill-opacity:0.1830357;stroke:none" />
      <path
         d="m 434.06306,512.65387 a 1.8388791,1.8826621 0 1 1 -3.67776,0 1.8388791,1.8826621 0 1 1 3.67776,0 z"
         transform="matrix(0.404762,0,0,0.404762,1671.47,-66.6001)"
         id="path5932"
         style="fill:#ff2e2e;fill-opacity:0.1830357;stroke:none" />
      <path
         d="m 434.06306,512.65387 a 1.8388791,1.8826621 0 1 1 -3.67776,0 1.8388791,1.8826621 0 1 1 3.67776,0 z"
         transform="matrix(0.404762,0,0,0.404762,1675.94,-74.9559)"
         id="path5934"
         style="fill:#ff2e2e;fill-opacity:0.1830357;stroke:none" />
      <path
         d="m 434.06306,512.65387 a 1.8388791,1.8826621 0 1 1 -3.67776,0 1.8388791,1.8826621 0 1 1 3.67776,0 z"
         transform="matrix(0.404762,0,0,0.404762,1671.9,-70.9128)"
         id="path5936"
         style="fill:#ff2e2e;fill-opacity:0.1830357;stroke:none" />
      <path
         d="m 434.06306,512.65387 a 1.8388791,1.8826621 0 1 1 -3.67776,0 1.8388791,1.8826621 0 1 1 3.67776,0 z"
         transform="matrix(0.404762,0,0,0.404762,1679.18,-71.6675)"
         id="path5938"
         style="fill:#ff2e2e;fill-opacity:0.1830357;stroke:none" />
      <path
         d="m 434.06306,512.65387 a 1.8388791,1.8826621 0 1 1 -3.67776,0 1.8388791,1.8826621 0 1 1 3.67776,0 z"
         transform="matrix(0.404762,0,0,0.404762,1686.02,-75.5489)"
         id="path5940"
         style="fill:#ff2e2e;fill-opacity:0.1830357;stroke:none" />
      <path
         d="m 434.06306,512.65387 a 1.8388791,1.8826621 0 1 1 -3.67776,0 1.8388791,1.8826621 0 1 1 3.67776,0 z"
         transform="matrix(0.404762,0,0,0.404762,1688.83,-72.8535)"
         id="path5942"
         style="fill:#ff2e2e;fill-opacity:0.1830357;stroke:none" />
      <path
         d="m 434.06306,512.65387 a 1.8388791,1.8826621 0 1 1 -3.67776,0 1.8388791,1.8826621 0 1 1 3.67776,0 z"
         transform="matrix(0.404762,0,0,0.404762,1680.69,-75.9263)"
         id="path5944"
         style="fill:#ff2e2e;fill-opacity:0.1830357;stroke:none" />
      <path
         d="m 434.06306,512.65387 a 1.8388791,1.8826621 0 1 1 -3.67776,0 1.8388791,1.8826621 0 1 1 3.67776,0 z"
         transform="matrix(0.404762,0,0,0.404762,1677.4,-79.1608)"
         id="path5946"
         style="fill:#ff2e2e;fill-opacity:0.1830357;stroke:none" />
      <path
         d="m 434.06306,512.65387 a 1.8388791,1.8826621 0 1 1 -3.67776,0 1.8388791,1.8826621 0 1 1 3.67776,0 z"
         transform="matrix(0.404762,0,0,0.404762,1673.03,-76.8427)"
         id="path5948"
         style="fill:#ff2e2e;fill-opacity:0.1830357;stroke:none" />
      <path
         d="m 434.06306,512.65387 a 1.8388791,1.8826621 0 1 1 -3.67776,0 1.8388791,1.8826621 0 1 1 3.67776,0 z"
         transform="matrix(0.404762,0,0,0.404762,1671.68,-73.9856)"
         id="path5950"
         style="fill:#ff2e2e;fill-opacity:0.1830357;stroke:none" />
      <path
         d="m 434.06306,512.65387 a 1.8388791,1.8826621 0 1 1 -3.67776,0 1.8388791,1.8826621 0 1 1 3.67776,0 z"
         transform="matrix(0.404762,0,0,0.404762,1673.89,-82.1257)"
         id="path5952"
         style="fill:#ff2e2e;fill-opacity:0.1830357;stroke:none" />
      <path
         d="m 434.06306,512.65387 a 1.8388791,1.8826621 0 1 1 -3.67776,0 1.8388791,1.8826621 0 1 1 3.67776,0 z"
         transform="matrix(0.404762,0,0,0.404762,1673.25,-86.2228)"
         id="path5954"
         style="fill:#ff2e2e;fill-opacity:0.1830357;stroke:none" />
      <path
         d="m 434.06306,512.65387 a 1.8388791,1.8826621 0 1 1 -3.67776,0 1.8388791,1.8826621 0 1 1 3.67776,0 z"
         transform="matrix(0.404762,0,0,0.404762,1671.57,-80.9398)"
         id="path5956"
         style="fill:#ff2e2e;fill-opacity:0.1830357;stroke:none" />
      <path
         d="m 434.06306,512.65387 a 1.8388791,1.8826621 0 1 1 -3.67776,0 1.8388791,1.8826621 0 1 1 3.67776,0 z"
         transform="matrix(0.404762,0,0,0.404762,1671.36,-78.7295)"
         id="path5958"
         style="fill:#ff2e2e;fill-opacity:0.1830357;stroke:none" />
      <path
         d="m 434.06306,512.65387 a 1.8388791,1.8826621 0 1 1 -3.67776,0 1.8388791,1.8826621 0 1 1 3.67776,0 z"
         transform="matrix(0.404762,0,0,0.404762,1682.57,-79.1069)"
         id="path5960"
         style="fill:#ff2e2e;fill-opacity:0.1830357;stroke:none" />
      <path
         d="m 434.06306,512.65387 a 1.8388791,1.8826621 0 1 1 -3.67776,0 1.8388791,1.8826621 0 1 1 3.67776,0 z"
         transform="matrix(0.404762,0,0,0.404762,1687.21,-78.8912)"
         id="path5962"
         style="fill:#ff2e2e;fill-opacity:0.1830357;stroke:none" />
      <path
         d="m 434.06306,512.65387 a 1.8388791,1.8826621 0 1 1 -3.67776,0 1.8388791,1.8826621 0 1 1 3.67776,0 z"
         transform="matrix(0.404762,0,0,0.404762,1690.71,-77.1123)"
         id="path5978"
         style="fill:#ff2e2e;fill-opacity:0.1830357;stroke:none" />
      <path
         d="m 434.06306,512.65387 a 1.8388791,1.8826621 0 1 1 -3.67776,0 1.8388791,1.8826621 0 1 1 3.67776,0 z"
         transform="matrix(0.404762,0,0,0.404762,1692.38,-81.0476)"
         id="path5980"
         style="fill:#ff2e2e;fill-opacity:0.1830357;stroke:none" />
      <path
         d="m 434.06306,512.65387 a 1.8388791,1.8826621 0 1 1 -3.67776,0 1.8388791,1.8826621 0 1 1 3.67776,0 z"
         transform="matrix(0.404762,0,0,0.404762,1692.92,-86.1689)"
         id="path5982"
         style="fill:#ff2e2e;fill-opacity:0.1830357;stroke:none" />
      <path
         d="m 434.06306,512.65387 a 1.8388791,1.8826621 0 1 1 -3.67776,0 1.8388791,1.8826621 0 1 1 3.67776,0 z"
         transform="matrix(0.404762,0,0,0.404762,1692.6,-89.8885)"
         id="path5984"
         style="fill:#ff2e2e;fill-opacity:0.1830357;stroke:none" />
      <path
         d="m 434.06306,512.65387 a 1.8388791,1.8826621 0 1 1 -3.67776,0 1.8388791,1.8826621 0 1 1 3.67776,0 z"
         transform="matrix(0.404762,0,0,0.404762,1687.59,-87.7861)"
         id="path5986"
         style="fill:#ff2e2e;fill-opacity:0.1830357;stroke:none" />
      <path
         d="m 434.06306,512.65387 a 1.8388791,1.8826621 0 1 1 -3.67776,0 1.8388791,1.8826621 0 1 1 3.67776,0 z"
         transform="matrix(0.404762,0,0,0.404762,1687.21,-83.6352)"
         id="path5988"
         style="fill:#ff2e2e;fill-opacity:0.1830357;stroke:none" />
      <path
         d="m 434.06306,512.65387 a 1.8388791,1.8826621 0 1 1 -3.67776,0 1.8388791,1.8826621 0 1 1 3.67776,0 z"
         transform="matrix(0.404762,0,0,0.404762,1679.88,-83.3656)"
         id="path5990"
         style="fill:#ff2e2e;fill-opacity:0.1830357;stroke:none" />
      <path
         d="m 434.06306,512.65387 a 1.8388791,1.8826621 0 1 1 -3.67776,0 1.8388791,1.8826621 0 1 1 3.67776,0 z"
         transform="matrix(0.404762,0,0,0.404762,1680.36,-87.5166)"
         id="path5992"
         style="fill:#ff2e2e;fill-opacity:0.1830357;stroke:none" />
      <path
         d="m 434.06306,512.65387 a 1.8388791,1.8826621 0 1 1 -3.67776,0 1.8388791,1.8826621 0 1 1 3.67776,0 z"
         transform="matrix(0.404762,0,0,0.404762,1676.91,-83.8508)"
         id="path5994"
         style="fill:#ff2e2e;fill-opacity:0.1830357;stroke:none" />
      <path
         d="m 434.06306,512.65387 a 1.8388791,1.8826621 0 1 1 -3.67776,0 1.8388791,1.8826621 0 1 1 3.67776,0 z"
         transform="matrix(0.404762,0,0,0.404762,1676.64,-89.5112)"
         id="path5996"
         style="fill:#ff2e2e;fill-opacity:0.1830357;stroke:none" />
      <path
         d="m 434.06306,512.65387 a 1.8388791,1.8826621 0 1 1 -3.67776,0 1.8388791,1.8826621 0 1 1 3.67776,0 z"
         transform="matrix(0.404762,0,0,0.404762,1680.63,-91.344)"
         id="path5998"
         style="fill:#ff2e2e;fill-opacity:0.1830357;stroke:none" />
      <path
         d="m 434.06306,512.65387 a 1.8388791,1.8826621 0 1 1 -3.67776,0 1.8388791,1.8826621 0 1 1 3.67776,0 z"
         transform="matrix(0.404762,0,0,0.404762,1683.76,-94.5247)"
         id="path6000"
         style="fill:#ff2e2e;fill-opacity:0.1830357;stroke:none" />
      <path
         d="m 434.06306,512.65387 a 1.8388791,1.8826621 0 1 1 -3.67776,0 1.8388791,1.8826621 0 1 1 3.67776,0 z"
         transform="matrix(0.404762,0,0,0.404762,1689.15,-91.937)"
         id="path6002"
         style="fill:#ff2e2e;fill-opacity:0.1830357;stroke:none" />
      <path
         d="m 434.06306,512.65387 a 1.8388791,1.8826621 0 1 1 -3.67776,0 1.8388791,1.8826621 0 1 1 3.67776,0 z"
         transform="matrix(0.404762,0,0,0.404762,1683.7,-85.9532)"
         id="path6004"
         style="fill:#ff2e2e;fill-opacity:0.1830357;stroke:none" />
      <path
         d="m 434.06306,512.65387 a 1.8388791,1.8826621 0 1 1 -3.67776,0 1.8388791,1.8826621 0 1 1 3.67776,0 z"
         transform="matrix(0.404762,0,0,0.404762,1683,-90.9667)"
         id="path6006"
         style="fill:#ff2e2e;fill-opacity:0.1830357;stroke:none" />
      <path
         d="m 434.06306,512.65387 a 1.8388791,1.8826621 0 1 1 -3.67776,0 1.8388791,1.8826621 0 1 1 3.67776,0 z"
         transform="matrix(0.404762,0,0,0.404762,1697.07,-94.3629)"
         id="path6008"
         style="fill:#ff2e2e;fill-opacity:0.1830357;stroke:none" />
      <path
         d="m 434.06306,512.65387 a 1.8388791,1.8826621 0 1 1 -3.67776,0 1.8388791,1.8826621 0 1 1 3.67776,0 z"
         transform="matrix(0.404762,0,0,0.404762,1680.36,-93.3926)"
         id="path6010"
         style="fill:#ff2e2e;fill-opacity:0.1830357;stroke:none" />
      <path
         d="m 434.06306,512.65387 a 1.8388791,1.8826621 0 1 1 -3.67776,0 1.8388791,1.8826621 0 1 1 3.67776,0 z"
         transform="matrix(0.404762,0,0,0.404762,1691.74,-93.9317)"
         id="path6012"
         style="fill:#ff2e2e;fill-opacity:0.1830357;stroke:none" />
      <path
         d="m 434.06306,512.65387 a 1.8388791,1.8826621 0 1 1 -3.67776,0 1.8388791,1.8826621 0 1 1 3.67776,0 z"
         transform="matrix(0.404762,0,0,0.404762,1686.56,-94.1473)"
         id="path6014"
         style="fill:#ff2e2e;fill-opacity:0.1830357;stroke:none" />
      <path
         d="m 434.06306,512.65387 a 1.8388791,1.8826621 0 1 1 -3.67776,0 1.8388791,1.8826621 0 1 1 3.67776,0 z"
         transform="matrix(0.404762,0,0,0.404762,1719.82,-93.716)"
         id="path6016"
         style="fill:#ff2e2e;fill-opacity:0.1830357;stroke:none" />
      <path
         d="m 434.06306,512.65387 a 1.8388791,1.8826621 0 1 1 -3.67776,0 1.8388791,1.8826621 0 1 1 3.67776,0 z"
         transform="matrix(0.404762,0,0,0.404762,1714.92,-93.716)"
         id="path6018"
         style="fill:#ff2e2e;fill-opacity:0.1830357;stroke:none" />
      <path
         d="m 434.06306,512.65387 a 1.8388791,1.8826621 0 1 1 -3.67776,0 1.8388791,1.8826621 0 1 1 3.67776,0 z"
         transform="matrix(0.404762,0,0,0.404762,1707.69,-93.4465)"
         id="path6020"
         style="fill:#ff2e2e;fill-opacity:0.1830357;stroke:none" />
      <path
         d="m 434.06306,512.65387 a 1.8388791,1.8826621 0 1 1 -3.67776,0 1.8388791,1.8826621 0 1 1 3.67776,0 z"
         transform="matrix(0.404762,0,0,0.404762,1707.96,-89.0799)"
         id="path6022"
         style="fill:#ff2e2e;fill-opacity:0.1830357;stroke:none" />
    </g>
  </g>
</svg>
